<svg width="76" height="541" viewBox="0 0 76 541" fill="none" xmlns="http://www.w3.org/2000/svg">
<g opacity="0.8">
<path d="M74.4967 496.239V541H1.15382L1.15382 496.239H11.2874L11.2874 528.026H31.2033L31.2033 498.239H41.2867V528.026H64.313V496.239H74.4967Z" fill="#6B49D4"/>
<path d="M1.15382 460.259C1.15382 453.447 1.92303 447.825 3.46146 443.392C4.99989 438.923 7.34097 435.608 10.4847 433.445C13.6285 431.247 17.625 430.148 22.4744 430.148C26.0864 430.148 29.1632 430.868 31.705 432.31C34.2467 433.752 36.3537 435.644 38.0259 437.986C39.6981 440.329 41.0359 442.834 42.0392 445.501L74.4967 423.066L74.4967 437.716L45.0993 456.799V469.503H74.4967V482.477H1.15382L1.15382 460.259ZM11.187 461.124L11.187 469.503H35.1664V460.529C35.1664 454.51 34.1297 450.15 32.0561 447.447C29.9826 444.708 26.9225 443.338 22.8757 443.338C18.6283 443.338 15.6184 444.798 13.8458 447.717C12.0733 450.6 11.187 455.069 11.187 461.124Z" fill="#6B49D4"/>
<path d="M1.15382 392.87C1.15382 386.059 1.92303 380.437 3.46146 376.004C4.99989 371.535 7.34097 368.219 10.4847 366.057C13.6285 363.858 17.625 362.759 22.4744 362.759C26.0864 362.759 29.1632 363.48 31.705 364.922C34.2467 366.363 36.3537 368.255 38.0259 370.598C39.6981 372.94 41.0359 375.445 42.0392 378.112L74.4967 355.677V370.327L45.0993 389.411V402.114H74.4967V415.089H1.15382L1.15382 392.87ZM11.187 393.735V402.114H35.1664V393.141C35.1664 387.122 34.1297 382.761 32.0561 380.058C29.9826 377.319 26.9225 375.95 22.8757 375.95C18.6283 375.95 15.6184 377.409 13.8458 380.328C12.0733 383.212 11.187 387.681 11.187 393.735Z" fill="#6B49D4"/>
<path d="M37.7249 277.531C43.377 277.531 48.5274 278.306 53.1761 279.856C57.7914 281.369 61.7712 283.658 65.1156 286.721C68.4266 289.785 70.985 293.623 72.791 298.236C74.597 302.849 75.5 308.255 75.5 314.454C75.5 320.761 74.597 326.239 72.791 330.888C70.985 335.501 68.4099 339.339 65.0655 342.402C61.721 345.43 57.7245 347.7 53.0757 349.214C48.427 350.728 43.2766 351.484 37.6246 351.484C30.0662 351.484 23.4777 350.151 17.8591 347.484C12.2071 344.781 7.82591 340.691 4.71561 335.213C1.57187 329.698 0 322.743 0 314.346C0 306.128 1.55515 299.299 4.66545 293.857C7.77575 288.415 12.1569 284.342 17.809 281.64C23.4276 278.901 30.0662 277.531 37.7249 277.531ZM37.7249 337.861C43.377 337.861 48.2765 337.033 52.4236 335.375C56.5372 333.717 59.7144 331.176 61.9551 327.752C64.1625 324.293 65.2661 319.86 65.2661 314.454C65.2661 309.012 64.1625 304.579 61.9551 301.155C59.7144 297.731 56.5372 295.208 52.4236 293.587C48.2765 291.965 43.377 291.154 37.7249 291.154C29.1298 291.154 22.4075 293.01 17.5581 296.722C12.6753 300.398 10.2339 306.273 10.2339 314.346C10.2339 319.752 11.3375 324.202 13.5449 327.698C15.7522 331.158 18.9126 333.717 23.0262 335.375C27.1064 337.033 32.006 337.861 37.7249 337.861Z" fill="#6B49D4"/>
<path d="M1.15382 241.659C1.15382 234.848 1.92303 229.226 3.46146 224.793C4.99989 220.324 7.34097 217.008 10.4847 214.846C13.6285 212.647 17.625 211.548 22.4744 211.548C26.0864 211.548 29.1632 212.269 31.705 213.71C34.2467 215.152 36.3537 217.044 38.0259 219.387C39.6981 221.729 41.0359 224.234 42.0392 226.901L74.4967 204.466V219.116L45.0993 238.199L45.0993 250.903H74.4967V263.878H1.15382L1.15382 241.659ZM11.187 242.524V250.903H35.1664L35.1664 241.93C35.1664 235.911 34.1297 231.55 32.0561 228.847C29.9826 226.108 26.9225 224.739 22.8757 224.739C18.6283 224.739 15.6184 226.198 13.8458 229.117C12.0733 232.001 11.187 236.47 11.187 242.524Z" fill="#6B49D4"/>
<path d="M58.3934 120.073V130.777H74.4967V143.318H58.3934V179.268H49.4638L0.953156 143.156L0.953156 130.777H48.611V120.073H58.3934ZM48.611 143.318H30.4007C28.8957 143.318 27.374 143.3 25.8355 143.264C24.2637 143.192 22.7587 143.12 21.3206 143.048C19.8825 142.976 18.5615 142.904 17.3575 142.832C16.12 142.76 15.1 142.706 14.2973 142.67V143.102C15.6351 143.787 17.0063 144.544 18.411 145.373C19.7822 146.202 21.1199 147.085 22.4243 148.022L48.611 167.483V143.318Z" fill="#6B49D4"/>
<path d="M37.7751 62.9016C43.6947 62.9016 48.9956 63.4061 53.6777 64.4152C58.3265 65.3883 62.2729 66.938 65.5169 69.0644C68.761 71.1907 71.2359 73.9657 72.9415 77.3895C74.6472 80.8133 75.5 84.9579 75.5 89.8232C75.5 95.9139 74.0117 100.941 71.0352 104.906C68.0252 108.87 63.711 111.807 58.0924 113.718C52.4403 115.628 45.6679 116.583 37.7751 116.583C29.8823 116.583 23.1266 115.718 17.508 113.988C11.8559 112.222 7.52492 109.375 4.51495 105.446C1.50498 101.518 0 96.3104 0 89.8232C0 83.6964 1.50498 78.6509 4.51495 74.6865C7.49147 70.6861 11.8058 67.7309 17.4578 65.8207C23.0764 63.8746 29.8488 62.9016 37.7751 62.9016ZM37.7751 103.771C43.9622 103.771 49.1293 103.338 53.2764 102.473C57.4235 101.572 60.5338 100.095 62.6073 98.0403C64.6474 95.986 65.6674 93.247 65.6674 89.8232C65.6674 86.3994 64.6474 83.6604 62.6073 81.6061C60.5672 79.5519 57.4736 78.0743 53.3266 77.1733C49.1795 76.2362 43.9957 75.7678 37.7751 75.7678C31.6214 75.7678 26.471 76.2182 22.3239 77.1192C18.1769 78.0202 15.0666 79.4979 12.993 81.5521C10.886 83.6064 9.83256 86.3634 9.83256 89.8232C9.83256 93.283 10.886 96.0401 12.993 98.0943C15.0666 100.113 18.1769 101.572 22.3239 102.473C26.471 103.338 31.6214 103.771 37.7751 103.771Z" fill="#6B49D4"/>
<path d="M58.3934 0V10.7038H74.4967V23.2456H58.3934V59.1952H49.4638L0.953156 23.0834L0.953156 10.7038H48.611V0H58.3934ZM48.611 23.2456H30.4007C28.8957 23.2456 27.374 23.2276 25.8355 23.1916C24.2637 23.1195 22.7587 23.0474 21.3206 22.9753C19.8825 22.9032 18.5615 22.8312 17.3575 22.7591C16.12 22.687 15.1 22.6329 14.2973 22.5969V23.0294C15.6351 23.7141 17.0063 24.4709 18.411 25.2999C19.7822 26.1288 21.1199 27.0118 22.4243 27.9488L48.611 47.4102V23.2456Z" fill="#6B49D4"/>
</g>
</svg>
