<svg width="1312" height="190" viewBox="0 0 1312 190" fill="none" xmlns="http://www.w3.org/2000/svg">
<g opacity="0.8">
<path d="M108.552 187.475H0V2.90365H108.552V28.4053H31.4645V78.5249H103.702V103.9H31.4645V161.847H108.552V187.475Z" fill="#6B49D4"/>
<path d="M195.809 2.90365C212.327 2.90365 225.962 4.83942 236.712 8.71096C247.55 12.5825 255.591 18.474 260.835 26.3854C266.167 34.2968 268.832 44.3544 268.832 56.5581C268.832 65.6478 267.084 73.3909 263.588 79.7874C260.092 86.1838 255.504 91.4862 249.823 95.6944C244.142 99.9025 238.067 103.269 231.599 105.794L286.007 187.475H250.478L204.199 113.495H173.39V187.475H141.926V2.90365H195.809ZM193.711 28.1528H173.39V88.4983H195.153C209.749 88.4983 220.325 85.8893 226.88 80.6711C233.522 75.4529 236.844 67.7519 236.844 57.5681C236.844 46.8793 233.304 39.3045 226.224 34.8439C219.232 30.3832 208.394 28.1528 193.711 28.1528Z" fill="#6B49D4"/>
<path d="M359.235 2.90365C375.754 2.90365 389.388 4.83942 400.139 8.71096C410.977 12.5825 419.017 18.474 424.262 26.3854C429.593 34.2968 432.259 44.3544 432.259 56.5581C432.259 65.6478 430.511 73.3909 427.015 79.7874C423.519 86.1838 418.93 91.4862 413.249 95.6944C407.568 99.9025 401.494 103.269 395.026 105.794L449.433 187.475H413.905L367.626 113.495H336.817V187.475H305.352V2.90365H359.235ZM357.137 28.1528H336.817V88.4983H358.58C373.176 88.4983 383.751 85.8893 390.306 80.6711C396.949 75.4529 400.27 67.7519 400.27 57.5681C400.27 46.8793 396.73 39.3045 389.651 34.8439C382.659 30.3832 371.821 28.1528 357.137 28.1528Z" fill="#6B49D4"/>
<path d="M638.949 94.9369C638.949 109.161 637.07 122.122 633.311 133.821C629.641 145.435 624.091 155.451 616.661 163.867C609.232 172.199 599.924 178.638 588.737 183.183C577.549 187.728 564.439 190 549.406 190C534.111 190 520.826 187.728 509.551 183.183C498.364 178.638 489.056 172.157 481.626 163.741C474.285 155.324 468.779 145.267 465.108 133.568C461.437 121.869 459.601 108.908 459.601 94.6844C459.601 75.6633 462.835 59.0831 469.303 44.9435C475.858 30.7198 485.778 19.6944 499.063 11.8671C512.435 3.9557 529.304 0 549.668 0C569.596 0 586.158 3.91362 599.356 11.7409C612.554 19.5681 622.43 30.5936 628.985 44.8173C635.628 58.9568 638.949 75.6633 638.949 94.9369ZM492.639 94.9369C492.639 109.161 494.649 121.491 498.67 131.927C502.69 142.279 508.852 150.275 517.155 155.914C525.546 161.468 536.296 164.246 549.406 164.246C562.604 164.246 573.354 161.468 581.657 155.914C589.96 150.275 596.078 142.279 600.012 131.927C603.945 121.491 605.911 109.161 605.911 94.9369C605.911 73.3068 601.41 56.3898 592.408 44.186C583.493 31.8981 569.246 25.7542 549.668 25.7542C536.558 25.7542 525.764 28.5316 517.286 34.0864C508.896 39.6412 502.69 47.5947 498.67 57.9468C494.649 68.2148 492.639 80.5449 492.639 94.9369Z" fill="#6B49D4"/>
<path d="M725.943 2.90365C742.462 2.90365 756.096 4.83942 766.847 8.71096C777.684 12.5825 785.725 18.474 790.969 26.3854C796.301 34.2968 798.967 44.3544 798.967 56.5581C798.967 65.6478 797.219 73.3909 793.723 79.7874C790.226 86.1838 785.638 91.4862 779.957 95.6944C774.276 99.9025 768.201 103.269 761.734 105.794L816.141 187.475H780.612L734.333 113.495H703.524V187.475H672.06V2.90365H725.943ZM723.845 28.1528H703.524V88.4983H725.287C739.883 88.4983 750.459 85.8893 757.014 80.6711C763.656 75.4529 766.978 67.7519 766.978 57.5681C766.978 46.8793 763.438 39.3045 756.358 34.8439C749.366 30.3832 738.529 28.1528 723.845 28.1528Z" fill="#6B49D4"/>
<path d="M1020.81 146.95H994.849V187.475H964.433V146.95H877.25V124.478L964.826 2.39867H994.849V122.332H1020.81V146.95ZM964.433 122.332V76.505C964.433 72.7176 964.477 68.8881 964.564 65.0166C964.739 61.0609 964.914 57.2735 965.088 53.6545C965.263 50.0354 965.438 46.711 965.613 43.6811C965.788 40.567 965.919 38 966.006 35.9801H964.957C963.297 39.3466 961.461 42.7973 959.451 46.3322C957.441 49.7829 955.299 53.1495 953.027 56.4319L905.83 122.332H964.433Z" fill="#6B49D4"/>
<path d="M1159.45 95.0631C1159.45 109.96 1158.23 123.3 1155.78 135.083C1153.42 146.782 1149.67 156.713 1144.51 164.877C1139.35 173.041 1132.62 179.269 1124.32 183.561C1116.02 187.854 1105.97 190 1094.17 190C1079.4 190 1067.2 186.255 1057.59 178.764C1047.97 171.189 1040.85 160.332 1036.22 146.193C1031.59 131.969 1029.27 114.926 1029.27 95.0631C1029.27 75.2004 1031.37 58.1993 1035.56 44.0598C1039.85 29.8361 1046.75 18.9369 1056.28 11.3621C1065.8 3.78738 1078.43 0 1094.17 0C1109.02 0 1121.26 3.78738 1130.87 11.3621C1140.58 18.8527 1147.74 29.7099 1152.38 43.9336C1157.1 58.0731 1159.45 75.1163 1159.45 95.0631ZM1060.34 95.0631C1060.34 110.633 1061.39 123.637 1063.49 134.073C1065.67 144.509 1069.26 152.337 1074.24 157.555C1079.22 162.689 1085.86 165.256 1094.17 165.256C1102.47 165.256 1109.11 162.689 1114.09 157.555C1119.08 152.421 1122.66 144.636 1124.84 134.199C1127.12 123.763 1128.25 110.718 1128.25 95.0631C1128.25 79.577 1127.16 66.6157 1124.98 56.1794C1122.79 45.7431 1119.21 37.9158 1114.22 32.6977C1109.24 27.3953 1102.56 24.7442 1094.17 24.7442C1085.78 24.7442 1079.09 27.3953 1074.11 32.6977C1069.21 37.9158 1065.67 45.7431 1063.49 56.1794C1061.39 66.6157 1060.34 79.577 1060.34 95.0631Z" fill="#6B49D4"/>
<path d="M1312 146.95H1286.04V187.475H1255.63V146.95H1168.44V124.478L1256.02 2.39867H1286.04V122.332H1312V146.95ZM1255.63 122.332V76.505C1255.63 72.7176 1255.67 68.8881 1255.76 65.0166C1255.93 61.0609 1256.11 57.2735 1256.28 53.6545C1256.46 50.0354 1256.63 46.711 1256.81 43.6811C1256.98 40.567 1257.11 38 1257.2 35.9801H1256.15C1254.49 39.3466 1252.65 42.7973 1250.64 46.3322C1248.63 49.7829 1246.49 53.1495 1244.22 56.4319L1197.02 122.332H1255.63Z" fill="#6B49D4"/>
</g>
</svg>
