<svg width="129" height="32" viewBox="0 0 129 32" fill="none" xmlns="http://www.w3.org/2000/svg">
<path d="M128.617 21.572C128.609 21.5407 127.829 18.3954 127.829 15.9978C127.829 13.6001 128.609 10.4557 128.617 10.4244C128.683 10.1623 128.632 9.89854 128.477 9.69989C128.422 9.62906 128.355 9.56882 128.281 9.52185C128.289 9.4848 128.295 9.44768 128.298 9.40893C128.321 9.1007 128.164 8.81551 127.881 8.64576C127.853 8.62924 125.078 6.95687 123.382 5.26146C121.687 3.56605 120.015 0.790951 119.998 0.763758C119.84 0.501615 119.577 0.345055 119.291 0.345055C119.233 0.345055 119.177 0.351575 119.121 0.363949C119.118 0.359059 119.115 0.35328 119.112 0.348316C118.926 0.0697237 118.571 -0.0604586 118.219 0.0268978C118.188 0.0351222 115.047 0.81481 112.646 0.81481C110.245 0.81481 107.104 0.0351222 107.072 0.0268978C106.721 -0.0604586 106.366 0.0697237 106.179 0.348316C106.176 0.35328 106.173 0.359059 106.17 0.363949C106.115 0.351575 106.058 0.345055 106 0.345055C105.715 0.345055 105.451 0.501615 105.293 0.763758C105.277 0.791766 103.608 3.56361 101.909 5.26228C100.214 6.95776 97.4383 8.63006 97.4101 8.64658C97.1271 8.81633 96.9708 9.10233 96.9945 9.40974C96.9974 9.44768 97.0026 9.48562 97.0108 9.52274C96.9367 9.56971 96.87 9.62988 96.8144 9.70071C96.6596 9.89935 96.6084 10.1631 96.6744 10.4252C96.6825 10.4565 97.462 13.6009 97.462 15.9994C97.462 18.3979 96.6825 21.5423 96.6744 21.5736C96.6084 21.8357 96.6596 22.0995 96.8144 22.2981C96.87 22.369 96.9367 22.4292 97.0108 22.4762C97.0026 22.5132 96.9967 22.5503 96.9945 22.5891C96.9708 22.8973 97.1271 23.1825 97.4109 23.3523C97.439 23.3688 100.211 25.0378 101.91 26.7365C103.605 28.4319 105.277 31.2071 105.294 31.2351C105.452 31.4972 105.715 31.6538 106.001 31.6538C106.059 31.6538 106.116 31.6472 106.171 31.6349C106.175 31.6398 106.177 31.6455 106.18 31.6505C106.326 31.8689 106.576 32 106.847 32C106.922 32 106.997 31.9901 107.073 31.972C107.104 31.9637 110.245 31.184 112.646 31.184C115.048 31.184 118.188 31.9637 118.219 31.972C118.57 32.0602 118.926 31.9291 119.112 31.6505C119.115 31.6455 119.118 31.6398 119.121 31.6349C119.177 31.6472 119.233 31.6538 119.291 31.6538C119.577 31.6538 119.84 31.4972 119.998 31.2351C120.015 31.2071 121.687 28.4319 123.382 26.7365C125.078 25.0411 127.853 23.3688 127.881 23.3523C128.164 23.1825 128.321 22.8965 128.298 22.5891C128.295 22.5503 128.29 22.5132 128.281 22.4762C128.356 22.4292 128.423 22.369 128.478 22.2981C128.632 22.0995 128.684 21.8357 128.618 21.5744" fill="#686279"/>
<path d="M0 8.12384H2.50644V12.8433C2.50644 13.8819 2.87898 14.289 3.90681 14.289H6.39102C7.41877 14.289 7.79131 13.8827 7.79131 12.8433V8.12384H10.2978V13.3857C10.2978 15.4182 9.24777 16.3891 6.94405 16.3891H3.35377C1.05005 16.3891 0 15.4182 0 13.3857V8.12384Z" fill="#686279"/>
<path d="M11.9911 8.12384H15.8418L18.6755 13.3857L21.5099 8.12384H25.3599V16.2984H22.9211V10.4267H22.8988L19.6126 16.2984H17.7384L14.453 10.4267H14.4299V16.2984H11.9911V8.12384Z" fill="#686279"/>
<path d="M27.0558 8.12384H34.2711C36.2698 8.12384 37.2407 8.66621 37.2407 10.2693C37.2407 11.6697 36.7321 11.94 36.0324 12.1436V12.1774C37.1278 12.3125 37.5341 12.9002 37.5341 14.1308C37.5341 15.9259 36.4725 16.2984 35.0384 16.2984H27.0558V8.12384ZM29.5623 11.3639H33.9999C34.4631 11.3639 34.7335 11.1949 34.7335 10.7317C34.7335 10.2685 34.4623 10.088 33.9999 10.088H29.5623V11.3639ZM29.5623 14.3336H34.056C34.5983 14.3336 34.9593 14.2091 34.9593 13.7352C34.9593 13.1821 34.5983 13.0577 34.056 13.0577H29.5623V14.3336Z" fill="#686279"/>
<path d="M39.0469 8.12407H46.6124C48.5435 8.12407 49.0628 9.08343 49.0628 10.5514V11.0706C49.0628 12.166 48.8147 12.8097 47.6625 13.0801V13.1023C48.4076 13.2375 49.029 13.5656 49.029 14.909V16.2979H46.5225V15.3154C46.5225 14.4574 46.2745 14.1746 45.4947 14.1746H41.5542V16.297H39.0477V8.12244L39.0469 8.12407ZM41.5542 12.1438H45.6983C46.3758 12.1438 46.6239 11.8726 46.6239 11.2858V11.0146C46.6239 10.2917 46.2629 10.1566 45.4725 10.1566H41.5542V12.1438Z" fill="#686279"/>
<path d="M50.7567 8.12384H59.6995V10.0204H53.2631V11.3301H59.3609V13.0239H53.2631V14.3336H59.8462V16.2984H50.7567V8.12384Z" fill="#686279"/>
<path d="M61.3594 8.12384H63.8667V14.1983H69.5V16.2984H61.3594V8.12384Z" fill="#686279"/>
<path d="M70.5625 8.12384H73.0691V14.1983H78.7032V16.2984H70.5625V8.12384Z" fill="#686279"/>
<path d="M83.6139 8.12384H86.8769L91.3707 16.2984H88.5818L87.8024 14.8528H82.721L81.9875 16.2984H79.1875L83.6139 8.12384ZM83.6591 13.0914H86.8666L85.2402 10.0204L83.6591 13.0914Z" fill="#686279"/>
<path d="M33.4279 21.0705C33.3701 21.5353 33.1113 21.6104 32.5146 21.6104H31.0598C30.2983 21.6104 30.154 21.2535 30.154 20.5941V20.1152C30.154 19.5877 30.2727 19.099 31.1332 19.099H32.6185C32.9234 19.099 33.3347 19.1468 33.3792 19.5581L33.3875 19.633H34.4944L34.4927 19.5473C34.482 19.0396 34.4062 18.7701 34.2215 18.5846C33.9619 18.3217 33.4287 18.2104 32.4404 18.2104H30.8381C29.5029 18.2104 29.0067 18.6118 29.0067 19.6924V21.0177C29.0067 22.0983 29.5029 22.4997 30.8381 22.4997H33.0355C34.4309 22.4997 34.5479 21.8741 34.5479 21.2873V20.9963H33.4353L33.4261 21.0705H33.4279Z" fill="#686279"/>
<path d="M39.4026 18.21H37.2176C35.8824 18.21 35.3862 18.6114 35.3862 19.692V21.0174C35.3862 22.0979 35.8824 22.4993 37.2176 22.4993H39.4026C40.7378 22.4993 41.234 22.0979 41.234 21.0174V19.692C41.234 18.6114 40.7378 18.21 39.4026 18.21ZM40.0876 20.1156V20.5945C40.0876 21.2539 39.9433 21.6108 39.1817 21.6108H37.4385C36.6769 21.6108 36.5327 21.2539 36.5327 20.5945V20.1156C36.5327 19.5881 36.6514 19.0994 37.5118 19.0994H39.1075C39.968 19.0994 40.0867 19.5873 40.0867 20.1156" fill="#686279"/>
<path d="M46.1564 18.2591H42.1696V22.451H43.2799V21.2971H45.5481C46.041 21.2971 46.233 21.5064 46.233 22.043V22.451H47.3432V21.8221C47.3432 21.138 47.0276 21.0235 46.7045 20.9641L46.6006 20.9452V20.7276L46.6979 20.7045C47.2007 20.5866 47.3614 20.3509 47.3614 19.7344V19.4517C47.3614 18.7354 47.1561 18.2582 46.1555 18.2582M43.2807 19.1113H45.5365C45.9174 19.1113 46.2882 19.1566 46.2882 19.7039V19.8514C46.2882 20.2561 46.0879 20.444 45.6586 20.444H43.2799V19.1113H43.2807Z" fill="#686279"/>
<path d="M52.1239 18.2599H48.5368V22.4519H49.6471V21.3351H52.4799C53.525 21.3351 53.6058 20.3419 53.6058 20.0369V19.6562C53.6058 18.9309 53.4261 18.2599 52.1239 18.2599ZM49.6462 19.1122H51.7735C52.3398 19.1122 52.4585 19.4377 52.4585 19.7106V19.882C52.4585 20.257 52.2458 20.4812 51.8906 20.4812H49.6471V19.1122H49.6462Z" fill="#686279"/>
<path d="M58.5105 18.21H56.3255C54.9903 18.21 54.4933 18.6114 54.4933 19.692V21.0174C54.4933 22.0979 54.9894 22.4993 56.3255 22.4993H58.5105C59.8455 22.4993 60.3427 22.0979 60.3427 21.0174V19.692C60.3427 18.6114 59.8463 18.21 58.5105 18.21ZM59.1957 20.1156V20.5945C59.1957 21.2539 59.0513 21.6108 58.2897 21.6108H56.5465C55.7848 21.6108 55.6406 21.2539 55.6406 20.5945V20.1156C55.6406 19.5881 55.7593 19.0994 56.6198 19.0994H58.2155C59.0759 19.0994 59.1957 19.5873 59.1957 20.1156Z" fill="#686279"/>
<path d="M65.3278 18.2591H61.3415V22.451H62.4514V21.2971H64.7195C65.2129 21.2971 65.4048 21.5064 65.4048 22.043V22.451H66.5147V21.8221C66.5147 21.1372 66.1991 21.0226 65.8761 20.9641L65.7723 20.9452V20.7276L65.8694 20.7045C66.3725 20.5858 66.534 20.3509 66.534 19.7344V19.4517C66.534 18.7354 66.3288 18.2582 65.3278 18.2582M62.4522 19.1113H64.7083C65.0892 19.1113 65.4604 19.1566 65.4604 19.7039V19.8514C65.4604 20.2561 65.2603 20.444 64.8306 20.444H62.4522V19.1113Z" fill="#686279"/>
<path d="M71.256 18.2599H69.6311L67.3616 22.4519H68.5945L68.9931 21.6664H71.9087L72.3318 22.4519H73.5595L71.2797 18.3036L71.256 18.2599ZM71.5338 20.9601H69.374L70.4387 18.8921L71.5338 20.9601Z" fill="#686279"/>
<path d="M72.942 19.1122H74.8573V22.4511H75.9672V19.1122H77.8825V18.2599H72.942V19.1122Z" fill="#686279"/>
<path d="M79.9124 18.2599H78.8025V22.4519H79.9124V18.2599Z" fill="#686279"/>
<path d="M92.6701 18.2599V21.4884H92.4708L89.9108 18.2599H87.9866V22.4511H89.0973V19.2226H89.2958L91.8558 22.4511H93.7807V18.2599H92.6701Z" fill="#686279"/>
<path d="M85.081 18.1735H82.8959C81.5608 18.1735 81.0636 18.5749 81.0636 19.6555V20.9816C81.0636 22.0622 81.5593 22.4635 82.8959 22.4635H85.081C86.4161 22.4635 86.9126 22.0622 86.9126 20.9816V19.6555C86.9126 18.5749 86.4169 18.1735 85.081 18.1735ZM85.7648 20.0783V20.5572C85.7648 21.2165 85.6204 21.5735 84.8587 21.5735H83.116C82.3543 21.5735 82.2098 21.2165 82.2098 20.5572V20.0783C82.2098 19.5508 82.3284 19.0621 83.1893 19.0621H84.7846C85.6456 19.0621 85.7648 19.55 85.7648 20.0783Z" fill="#686279"/>
<path d="M112.642 1.51448C110.126 1.51448 106.899 0.705967 106.899 0.705967C106.774 0.674626 106.713 0.746348 106.761 0.864972L112.553 14.8479C112.602 14.9665 112.682 14.9665 112.732 14.8479L118.523 0.864972C118.573 0.746348 118.511 0.674626 118.386 0.705967C118.386 0.705967 115.158 1.51448 112.642 1.51448" fill="#686279"/>
<path d="M112.642 30.4816C110.126 30.4816 106.899 31.2901 106.899 31.2901C106.774 31.3215 106.713 31.2497 106.761 31.131L112.553 17.1482C112.602 17.0295 112.682 17.0295 112.732 17.1482L118.523 31.131C118.573 31.2497 118.511 31.3215 118.386 31.2901C118.386 31.2901 115.158 30.4816 112.642 30.4816" fill="#686279"/>
<path d="M98.1601 15.9979C98.1601 18.5142 97.351 21.7419 97.351 21.7419C97.3199 21.8664 97.3918 21.9282 97.5103 21.8787L111.493 16.0869C111.612 16.0374 111.612 15.9575 111.493 15.908L97.5103 10.1162C97.3918 10.0668 97.3199 10.1286 97.351 10.2539C97.351 10.2539 98.1601 13.4816 98.1601 15.9979Z" fill="#686279"/>
<path d="M127.128 15.9979C127.128 18.5142 127.936 21.7419 127.936 21.7419C127.967 21.8664 127.896 21.9282 127.777 21.8787L113.795 16.0869C113.676 16.0374 113.676 15.9575 113.795 15.908L127.777 10.1162C127.896 10.0668 127.967 10.1286 127.936 10.2539C127.936 10.2539 127.128 13.4816 127.128 15.9979Z" fill="#686279"/>
<path d="M122.887 5.75683C121.109 3.97821 119.398 1.12308 119.398 1.12308C119.332 1.01268 119.237 1.02009 119.188 1.13872L113.396 15.1217C113.347 15.2403 113.404 15.2972 113.522 15.2478L127.505 9.45595C127.624 9.40653 127.631 9.3125 127.521 9.24663C127.521 9.24663 124.667 7.53633 122.887 5.75683Z" fill="#443F53"/>
<path d="M102.403 26.2395C100.624 24.4609 97.7692 22.7498 97.7692 22.7498C97.6588 22.6838 97.6662 22.589 97.7847 22.5404L111.768 16.7486C111.886 16.6992 111.943 16.756 111.894 16.8747L106.102 30.8576C106.053 30.9763 105.959 30.9837 105.893 30.8733C105.893 30.8733 104.181 28.019 102.403 26.2395Z" fill="#443F53"/>
<path d="M102.403 5.75687C100.623 7.53556 97.7692 9.2466 97.7692 9.2466C97.6588 9.31254 97.6662 9.40731 97.7847 9.45592L111.768 15.2477C111.886 15.2972 111.943 15.2403 111.894 15.1216L106.102 1.13876C106.053 1.02006 105.959 1.01347 105.893 1.12312C105.893 1.12312 104.182 3.97736 102.403 5.75687Z" fill="#443F53"/>
<path d="M122.887 26.2395C121.108 28.0182 119.398 30.8733 119.398 30.8733C119.332 30.9837 119.237 30.9763 119.188 30.8576L113.396 16.8747C113.347 16.756 113.404 16.6992 113.522 16.7486L127.505 22.5404C127.624 22.5899 127.631 22.6838 127.521 22.7498C127.521 22.7498 124.667 24.4601 122.887 26.2395Z" fill="#443F53"/>
</svg>
