<svg width="214" height="78" viewBox="0 0 214 78" fill="none" xmlns="http://www.w3.org/2000/svg">
<g clip-path="url(#clip0_230_1236)">
<path fill-rule="evenodd" clip-rule="evenodd" d="M143.215 24.1007L154.625 18.7646V57.7902H143.215V24.1007Z" fill="black"/>
<path fill-rule="evenodd" clip-rule="evenodd" d="M168.882 36.0732V57.7893H157.473V36.0732H168.882Z" fill="black"/>
<path fill-rule="evenodd" clip-rule="evenodd" d="M57.3741 24.1002L62.7561 21.6008L64.3811 20.8503L68.8602 18.771V34.9995C70.0477 33.2162 72.7352 30.9923 76.0686 30.9923C83.7908 30.9923 84.1102 37.0307 84.1102 38.27V56.1854C83.2283 55.8205 82.2977 55.4005 81.2977 54.9185C78.27 53.452 75.3533 51.71 72.7491 49.9956V41.3821C72.7491 39.4474 72.1727 38.5317 70.77 38.5317C69.3672 38.5317 68.8533 39.7848 68.8533 41.7884V47.3103C68.0755 46.7526 67.3533 46.2156 66.6936 45.713C62.9297 42.8694 59.8811 39.9156 57.3672 36.9412V24.1002H57.3741ZM81.5061 57.7897H72.7561V53.7894C75.1866 55.1389 77.6866 56.3507 80.2283 57.3284C80.6311 57.4867 81.0616 57.6382 81.5061 57.7897ZM68.8602 51.4828V57.7897H57.3741V43.1035C59.1241 44.6458 61.0547 46.1674 63.2005 47.689C65.02 48.9766 66.9089 50.2572 68.8602 51.4828Z" fill="black"/>
<path fill-rule="evenodd" clip-rule="evenodd" d="M163.181 22.9507C166.319 22.9507 168.861 25.4707 168.861 28.5828C168.861 31.6949 166.319 34.2149 163.181 34.2149C160.042 34.2149 157.5 31.6949 157.5 28.5828C157.5 25.4707 160.042 22.9507 163.181 22.9507Z" fill="#1AAAE2"/>
<path fill-rule="evenodd" clip-rule="evenodd" d="M127.598 38.5108C128.751 38.5108 129.529 39.3163 129.529 40.4593V48.577C129.529 49.72 128.751 50.6219 127.598 50.6219C126.445 50.6219 125.549 49.72 125.549 48.577V40.4593C125.549 39.3163 126.452 38.5108 127.598 38.5108ZM140.765 41.8914C140.765 37.9944 138.661 34.8478 135.612 33.0095C133.313 31.6324 130.48 31.0747 127.605 31.0747C124.73 31.0747 121.89 31.6324 119.598 33.0095C116.549 34.8409 114.445 38.077 114.445 41.9672V47.3583C114.445 51.2554 116.549 54.4019 119.598 56.2403C121.897 57.6173 124.73 58.175 127.605 58.175C130.48 58.175 133.32 57.6173 135.612 56.2403C138.661 54.4088 140.765 51.2554 140.765 47.3583V41.8914Z" fill="black"/>
<path fill-rule="evenodd" clip-rule="evenodd" d="M57.3751 36.934C55.5695 34.7996 54.0418 32.6652 52.7154 30.5514C47.8195 22.1514 49.5279 18.7294 58.9793 20.5265C60.0973 20.7399 61.3751 21.1048 62.764 21.6006L64.389 20.8501C61.3057 19.597 58.4168 18.695 55.9932 18.3163C45.8543 16.7396 41.6112 21.098 47.2015 31.0953C49.7362 35.2747 52.9723 39.2337 57.3751 43.1032V36.934ZM68.8612 24.1894C74.8265 27.0606 81.3751 31.0678 85.8612 34.5311C86.5418 35.0543 87.2362 35.5914 87.9445 36.1491C88.1112 35.9081 88.2848 35.674 88.4723 35.4537C87.3126 34.5173 86.1945 33.6566 85.1598 32.858C80.5418 29.2914 74.5904 25.6353 68.8543 22.8537V24.1894H68.8612ZM81.507 57.7894C86.4237 59.4626 93.5209 60.7639 98.1043 59.2078C92.1876 58.5193 88.8056 58.113 84.1181 56.1783V57.7894H81.507Z" fill="#1AAAE2"/>
<path fill-rule="evenodd" clip-rule="evenodd" d="M99.3394 38.5108C100.492 38.5108 101.27 39.3163 101.27 40.4593V48.577C101.27 49.72 100.492 50.6219 99.3394 50.6219C98.1866 50.6219 97.2908 49.72 97.2908 48.577V40.4593C97.2908 39.3163 98.1936 38.5108 99.3394 38.5108ZM112.499 41.9672C112.499 38.0701 110.395 34.8409 107.346 33.0095C105.048 31.6324 102.214 31.0747 99.3394 31.0747C96.4644 31.0747 93.6241 31.6324 91.3325 33.0095C88.2839 34.8409 86.1797 37.9944 86.1797 41.8914V47.3583C86.1797 51.2554 88.2839 54.4019 91.3325 56.2403C93.6311 57.6173 96.4644 58.175 99.3394 58.175C102.214 58.175 105.055 57.6173 107.346 56.2403C110.395 54.4088 112.499 51.2554 112.499 47.3583V41.9672Z" fill="black"/>
</g>
<defs>
<clipPath id="clip0_230_1236">
<rect width="125" height="42" fill="white" transform="translate(44.5 18)"/>
</clipPath>
</defs>
</svg>
