<svg width="214" height="78" viewBox="0 0 214 78" fill="none" xmlns="http://www.w3.org/2000/svg">
<path d="M193.774 46.5203C193.763 46.478 192.711 42.2331 192.711 38.9971C192.711 35.7611 193.763 31.5173 193.774 31.475C193.863 31.1213 193.794 30.7653 193.585 30.4972C193.511 30.4016 193.42 30.3203 193.32 30.2569C193.331 30.2069 193.339 30.1568 193.343 30.1045C193.374 29.6885 193.163 29.3036 192.781 29.0745C192.743 29.0522 188.998 26.7951 186.709 24.5069C184.421 22.2187 182.164 18.4733 182.142 18.4366C181.929 18.0828 181.573 17.8715 181.188 17.8715C181.109 17.8715 181.033 17.8803 180.958 17.897C180.954 17.8904 180.95 17.8826 180.946 17.8759C180.695 17.4999 180.215 17.3242 179.741 17.4421C179.699 17.4532 175.46 18.5055 172.219 18.5055C168.979 18.5055 164.739 17.4532 164.696 17.4421C164.223 17.3242 163.743 17.4999 163.491 17.8759C163.487 17.8826 163.483 17.8904 163.479 17.897C163.404 17.8803 163.328 17.8715 163.249 17.8715C162.864 17.8715 162.508 18.0828 162.295 18.4366C162.273 18.4744 160.021 22.2154 157.728 24.508C155.44 26.7963 151.694 29.0533 151.656 29.0756C151.274 29.3047 151.063 29.6907 151.095 30.1056C151.099 30.1568 151.106 30.208 151.117 30.2581C151.017 30.3215 150.927 30.4027 150.852 30.4983C150.643 30.7664 150.574 31.1224 150.663 31.4761C150.674 31.5184 151.726 35.7622 151.726 38.9993C151.726 42.2364 150.674 46.4802 150.663 46.5225C150.574 46.8762 150.643 47.2322 150.852 47.5003C150.927 47.596 151.017 47.6772 151.117 47.7406C151.106 47.7906 151.098 47.8407 151.095 47.893C151.063 48.309 151.274 48.6939 151.657 48.9231C151.695 48.9453 155.436 51.1979 157.729 53.4906C160.017 55.7788 162.274 59.5243 162.297 59.5621C162.509 59.9158 162.865 60.1272 163.25 60.1272C163.329 60.1272 163.406 60.1183 163.48 60.1016C163.485 60.1083 163.488 60.116 163.492 60.1227C163.689 60.4175 164.026 60.5944 164.393 60.5944C164.494 60.5944 164.595 60.581 164.697 60.5566C164.739 60.5454 168.978 59.4931 172.219 59.4931C175.461 59.4931 179.699 60.5454 179.741 60.5566C180.214 60.6756 180.695 60.4987 180.946 60.1227C180.95 60.116 180.954 60.1083 180.958 60.1016C181.033 60.1183 181.109 60.1272 181.188 60.1272C181.573 60.1272 181.929 59.9158 182.142 59.5621C182.164 59.5243 184.421 55.7788 186.709 53.4906C188.998 51.2024 192.743 48.9453 192.781 48.9231C193.163 48.6939 193.374 48.3079 193.344 47.893C193.34 47.8407 193.333 47.7906 193.321 47.7406C193.422 47.6772 193.512 47.596 193.586 47.5003C193.795 47.2322 193.864 46.8762 193.775 46.5236" fill="#1D1D1B"/>
<path d="M20.1875 28.3701H23.5703V34.7397C23.5703 36.1414 24.0731 36.6909 25.4603 36.6909H28.8131C30.2002 36.6909 30.703 36.1425 30.703 34.7397V28.3701H34.0859V35.4717C34.0859 38.2149 32.6687 39.5253 29.5595 39.5253H24.7139C21.6047 39.5253 20.1875 38.2149 20.1875 35.4717V28.3701Z" fill="#1D1D1B"/>
<path d="M36.3711 28.3701H41.5682L45.3927 35.4717L49.2182 28.3701H54.4143V39.4029H51.1227V31.4782H51.0926L46.6575 39.4029H44.1279L39.6938 31.4782H39.6627V39.4029H36.3711V28.3701Z" fill="#1D1D1B"/>
<path d="M56.7031 28.3701H66.4411C69.1387 28.3701 70.4491 29.1021 70.4491 31.2657C70.4491 33.1557 69.7627 33.5205 68.8183 33.7953V33.8409C70.2967 34.0233 70.8451 34.8165 70.8451 36.4773C70.8451 38.9001 69.4123 39.4029 67.4767 39.4029H56.7031V28.3701ZM60.0859 32.743H66.0751C66.7003 32.743 67.0652 32.5149 67.0652 31.8898C67.0652 31.2646 66.6992 31.021 66.0751 31.021H60.0859V32.743ZM60.0859 36.751H66.1508C66.8827 36.751 67.37 36.583 67.37 35.9434C67.37 35.1969 66.8827 35.029 66.1508 35.029H60.0859V36.751Z" fill="#1D1D1B"/>
<path d="M72.8867 28.3704H83.0975C85.7038 28.3704 86.4046 29.6652 86.4046 31.6464V32.3472C86.4046 33.8256 86.0698 34.6944 84.5147 35.0593V35.0893C85.5203 35.2717 86.359 35.7145 86.359 37.5277V39.4021H82.9762V38.0761C82.9762 36.9181 82.6414 36.5365 81.589 36.5365H76.2707V39.401H72.8878V28.3682L72.8867 28.3704ZM76.2707 33.7956H81.8638C82.7782 33.7956 83.113 33.4296 83.113 32.6376V32.2716C83.113 31.296 82.6258 31.1136 81.559 31.1136H76.2707V33.7956Z" fill="#1D1D1B"/>
<path d="M88.6914 28.3701H100.761V30.9298H92.0742V32.6974H100.304V34.9834H92.0742V36.751H100.959V39.4029H88.6914V28.3701Z" fill="#1D1D1B"/>
<path d="M103 28.3701H106.384V36.5685H113.987V39.4029H103V28.3701Z" fill="#1D1D1B"/>
<path d="M115.422 28.3701H118.805V36.5685H126.409V39.4029H115.422V28.3701Z" fill="#1D1D1B"/>
<path d="M133.036 28.3701H137.44L143.505 39.4029H139.741L138.689 37.4518H131.831L130.841 39.4029H127.062L133.036 28.3701ZM133.097 35.0746H137.426L135.231 30.9298L133.097 35.0746Z" fill="#1D1D1B"/>
<path d="M65.3029 45.8434C65.225 46.4708 64.8757 46.5721 64.0703 46.5721H62.1069C61.0791 46.5721 60.8844 46.0904 60.8844 45.2005V44.5542C60.8844 43.8422 61.0446 43.1826 62.2059 43.1826H64.2105C64.6221 43.1826 65.1772 43.2471 65.2372 43.8022L65.2484 43.9034H66.7423L66.7401 43.7877C66.7256 43.1025 66.6233 42.7387 66.3741 42.4884C66.0237 42.1336 65.304 41.9834 63.9702 41.9834H61.8077C60.0056 41.9834 59.3359 42.5251 59.3359 43.9835V45.7722C59.3359 47.2306 60.0056 47.7723 61.8077 47.7723H64.7734C66.6567 47.7723 66.8146 46.928 66.8146 46.136V45.7433H65.3129L65.3006 45.8434H65.3029Z" fill="#1D1D1B"/>
<path d="M73.3661 41.9829H70.4171C68.615 41.9829 67.9453 42.5246 67.9453 43.983V45.7718C67.9453 47.2301 68.615 47.7719 70.4171 47.7719H73.3661C75.1681 47.7719 75.8378 47.2301 75.8378 45.7718V43.983C75.8378 42.5246 75.1681 41.9829 73.3661 41.9829ZM74.2905 44.5548V45.2011C74.2905 46.091 74.0958 46.5727 73.0679 46.5727H70.7152C69.6873 46.5727 69.4927 46.091 69.4927 45.2011V44.5548C69.4927 43.8428 69.6529 43.1832 70.8142 43.1832H72.9678C74.1292 43.1832 74.2893 43.8417 74.2893 44.5548" fill="#1D1D1B"/>
<path d="M82.4823 42.049H77.1016V47.7066H78.6V46.1493H81.6613C82.3265 46.1493 82.5857 46.4318 82.5857 47.156V47.7066H84.0841V46.8579C84.0841 45.9346 83.6581 45.78 83.222 45.6999L83.0818 45.6743V45.3806L83.2131 45.3495C83.8917 45.1904 84.1086 44.8722 84.1086 44.0402V43.6586C84.1086 42.6919 83.8316 42.0479 82.4811 42.0479M78.6011 43.1992H81.6457C82.1597 43.1992 82.6602 43.2604 82.6602 43.999V44.1981C82.6602 44.7443 82.3899 44.9979 81.8104 44.9979H78.6V43.1992H78.6011Z" fill="#1D1D1B"/>
<path d="M90.5365 42.0503H85.6953V47.708H87.1937V46.2007H91.017C92.4276 46.2007 92.5366 44.8602 92.5366 44.4486V43.9347C92.5366 42.9558 92.2941 42.0503 90.5365 42.0503ZM87.1926 43.2005H90.0637C90.8279 43.2005 90.9881 43.6399 90.9881 44.0081V44.2395C90.9881 44.7456 90.7011 45.0482 90.2217 45.0482H87.1937V43.2005H87.1926Z" fill="#1D1D1B"/>
<path d="M99.1562 41.9829H96.2072C94.4052 41.9829 93.7344 42.5246 93.7344 43.983V45.7718C93.7344 47.2301 94.404 47.7719 96.2072 47.7719H99.1562C100.958 47.7719 101.629 47.2301 101.629 45.7718V43.983C101.629 42.5246 100.959 41.9829 99.1562 41.9829ZM100.081 44.5548V45.2011C100.081 46.091 99.886 46.5727 98.8581 46.5727H96.5054C95.4775 46.5727 95.2828 46.091 95.2828 45.2011V44.5548C95.2828 43.8428 95.443 43.1832 96.6044 43.1832H98.758C99.9193 43.1832 100.08 43.8417 100.08 44.5548" fill="#1D1D1B"/>
<path d="M108.357 42.049H102.977V47.7066H104.475V46.1493H107.536C108.202 46.1493 108.461 46.4318 108.461 47.156V47.7066H109.959V46.8579C109.959 45.9335 109.533 45.7788 109.097 45.6999L108.957 45.6743V45.3806L109.088 45.3495C109.767 45.1893 109.985 44.8722 109.985 44.0402V43.6586C109.985 42.6919 109.708 42.0479 108.357 42.0479M104.476 43.1992H107.521C108.035 43.1992 108.536 43.2604 108.536 43.999V44.1981C108.536 44.7443 108.266 44.9979 107.686 44.9979H104.476V43.1992Z" fill="#1D1D1B"/>
<path d="M116.358 42.0503H114.165L111.102 47.708H112.766L113.304 46.6478H117.239L117.81 47.708H119.467L116.39 42.1092L116.358 42.0503ZM116.733 45.6945H113.818L115.255 42.9035L116.734 45.6945H116.733Z" fill="#1D1D1B"/>
<path d="M118.633 43.2005H121.218V47.7069H122.716V43.2005H125.301V42.0503H118.633V43.2005Z" fill="#1D1D1B"/>
<path d="M128.041 42.0503H126.543V47.708H128.041V42.0503Z" fill="#1D1D1B"/>
<path d="M145.259 42.0503V46.4076H144.99L141.535 42.0503H138.938V47.7069H140.437V43.3496H140.705L144.16 47.7069H146.758V42.0503H145.259Z" fill="#1D1D1B"/>
<path d="M135.016 41.9336H132.067C130.265 41.9336 129.594 42.4753 129.594 43.9337V45.7235C129.594 47.1819 130.263 47.7236 132.067 47.7236H135.016C136.818 47.7236 137.488 47.1819 137.488 45.7235V43.9337C137.488 42.4753 136.819 41.9336 135.016 41.9336ZM135.939 44.5044V45.1507C135.939 46.0406 135.744 46.5223 134.716 46.5223H132.364C131.336 46.5223 131.141 46.0406 131.141 45.1507V44.5044C131.141 43.7924 131.301 43.1328 132.463 43.1328H134.616C135.778 43.1328 135.938 43.7913 135.938 44.5044" fill="#1D1D1B"/>
<path d="M172.214 19.4498C168.818 19.4498 164.462 18.3586 164.462 18.3586C164.294 18.3163 164.211 18.4131 164.276 18.5732L172.093 37.4452C172.16 37.6053 172.268 37.6053 172.335 37.4452L180.151 18.5732C180.218 18.4131 180.135 18.3163 179.966 18.3586C179.966 18.3586 175.609 19.4498 172.213 19.4498" fill="#E30613"/>
<path d="M172.214 58.5452C168.818 58.5452 164.462 59.6364 164.462 59.6364C164.294 59.6787 164.211 59.5819 164.276 59.4217L172.093 40.5498C172.16 40.3896 172.268 40.3896 172.335 40.5498L180.151 59.4217C180.218 59.5819 180.135 59.6787 179.966 59.6364C179.966 59.6364 175.609 58.5452 172.213 58.5452" fill="#E30613"/>
<path d="M152.668 38.9973C152.668 42.3934 151.576 46.7496 151.576 46.7496C151.534 46.9176 151.631 47.001 151.791 46.9342L170.663 39.1174C170.823 39.0506 170.823 38.9427 170.663 38.876L151.791 31.0591C151.631 30.9924 151.534 31.0758 151.576 31.2449C151.576 31.2449 152.668 35.6011 152.668 38.9973Z" fill="#E30613"/>
<path d="M191.764 38.9973C191.764 42.3934 192.855 46.7496 192.855 46.7496C192.897 46.9176 192.801 47.001 192.64 46.9342L173.769 39.1174C173.608 39.0506 173.608 38.9427 173.769 38.876L192.64 31.0591C192.801 30.9924 192.897 31.0758 192.855 31.2449C192.855 31.2449 191.764 35.6011 191.764 38.9973Z" fill="#E30613"/>
<path d="M186.04 25.1755C183.64 22.775 181.331 18.9216 181.331 18.9216C181.242 18.7726 181.114 18.7826 181.048 18.9427L173.231 37.8147C173.164 37.9748 173.241 38.0516 173.401 37.9849L192.273 30.168C192.433 30.1013 192.443 29.9744 192.294 29.8855C192.294 29.8855 188.442 27.5772 186.04 25.1755Z" fill="white"/>
<path d="M158.395 52.8197C155.994 50.4192 152.141 48.1098 152.141 48.1098C151.992 48.0208 152.002 47.8929 152.162 47.8273L171.034 40.0104C171.194 39.9437 171.271 40.0204 171.204 40.1806L163.387 59.0525C163.321 59.2127 163.194 59.2227 163.105 59.0737C163.105 59.0737 160.795 55.2214 158.395 52.8197Z" fill="white"/>
<path d="M158.395 25.1756C155.993 27.5762 152.141 29.8855 152.141 29.8855C151.992 29.9745 152.002 30.1024 152.162 30.168L171.034 37.9849C171.194 38.0516 171.271 37.9749 171.204 37.8147L163.387 18.9428C163.321 18.7826 163.194 18.7737 163.105 18.9217C163.105 18.9217 160.796 22.7739 158.395 25.1756Z" fill="white"/>
<path d="M186.04 52.8197C183.639 55.2203 181.331 59.0737 181.331 59.0737C181.242 59.2227 181.114 59.2127 181.048 59.0525L173.231 40.1806C173.164 40.0204 173.241 39.9437 173.401 40.0104L192.273 47.8273C192.433 47.894 192.443 48.0208 192.294 48.1098C192.294 48.1098 188.442 50.4181 186.04 52.8197Z" fill="white"/>
</svg>
