<svg width="96" height="32" viewBox="0 0 96 32" fill="none" xmlns="http://www.w3.org/2000/svg">
<mask id="mask0_11_110" style="mask-type:luminance" maskUnits="userSpaceOnUse" x="0" y="0" width="96" height="32">
<path d="M95.8839 0H0.645752V32H95.8839V0Z" fill="white"/>
</mask>
<g mask="url(#mask0_11_110)">
<path fill-rule="evenodd" clip-rule="evenodd" d="M75.857 4.64812L84.5503 0.58252V30.3163H75.857V4.64812Z" fill="#686279"/>
<path fill-rule="evenodd" clip-rule="evenodd" d="M95.4134 13.77V30.3156H86.7208V13.77H95.4134Z" fill="#686279"/>
<path fill-rule="evenodd" clip-rule="evenodd" d="M10.4548 4.64775L14.5554 2.74344L15.7935 2.17163L19.2062 0.587402V12.952C20.1109 11.5933 22.1585 9.89887 24.6983 9.89887C30.5819 9.89887 30.8252 14.4996 30.8252 15.4438V29.0936C30.1533 28.8156 29.4443 28.4956 28.6823 28.1284C26.3755 27.011 24.1533 25.6838 22.1691 24.3776V17.8149C22.1691 16.3408 21.73 15.6432 20.6612 15.6432C19.5924 15.6432 19.2009 16.5979 19.2009 18.1245V22.3316C18.6083 21.9067 18.058 21.4976 17.5554 21.1146C14.6877 18.9481 12.3649 16.6976 10.4496 14.4314V4.64775H10.4548ZM28.8411 30.3159H22.1745V27.2681C24.0263 28.2963 25.931 29.2196 27.8676 29.9645C28.1745 30.0851 28.5025 30.2005 28.8411 30.3159ZM19.2062 25.5107V30.3159H10.4548V19.1265C11.7882 20.3015 13.2591 21.4608 14.894 22.6202C16.2803 23.6012 17.7195 24.5769 19.2062 25.5107Z" fill="#686279"/>
<path fill-rule="evenodd" clip-rule="evenodd" d="M91.0693 3.77197C93.4601 3.77197 95.3969 5.69197 95.3969 8.0631C95.3969 10.4342 93.4601 12.3542 91.0693 12.3542C88.6777 12.3542 86.7409 10.4342 86.7409 8.0631C86.7409 5.69197 88.6777 3.77197 91.0693 3.77197Z" fill="#686279"/>
<path fill-rule="evenodd" clip-rule="evenodd" d="M63.9587 15.6273C64.8371 15.6273 65.4299 16.241 65.4299 17.1119V23.2968C65.4299 24.1677 64.8371 24.8548 63.9587 24.8548C63.0802 24.8548 62.3975 24.1677 62.3975 23.2968V17.1119C62.3975 16.241 63.0855 15.6273 63.9587 15.6273ZM73.9907 18.203C73.9907 15.2339 72.3876 12.8365 70.0646 11.4359C68.3129 10.3866 66.1545 9.96173 63.964 9.96173C61.7735 9.96173 59.6097 10.3866 57.8634 11.4359C55.5404 12.8312 53.9373 15.2968 53.9373 18.2608V22.3683C53.9373 25.3375 55.5404 27.7348 57.8634 29.1355C59.615 30.1847 61.7735 30.6096 63.964 30.6096C66.1545 30.6096 68.3183 30.1847 70.0646 29.1355C72.3876 27.7401 73.9907 25.3375 73.9907 22.3683V18.203Z" fill="#686279"/>
<path fill-rule="evenodd" clip-rule="evenodd" d="M10.4553 14.4259C9.07961 12.7997 7.91565 11.1735 6.90506 9.56296C3.17485 3.16296 4.47649 0.555723 11.6776 1.92494C12.5294 2.08753 13.5029 2.36555 14.5611 2.7433L15.7992 2.17149C13.45 1.21675 11.249 0.529513 9.40243 0.240979C1.67755 -0.960316 -1.55529 2.36037 2.70399 9.97736C4.63519 13.1617 7.10079 16.178 10.4553 19.1262V14.4259ZM19.2066 4.71572C23.7516 6.9033 28.741 9.95641 32.159 12.5951C32.6775 12.9937 33.2066 13.403 33.7463 13.8279C33.8733 13.6443 34.0055 13.4659 34.1484 13.298C33.2648 12.5846 32.4129 11.9288 31.6246 11.3204C28.1061 8.60296 23.5717 5.81736 19.2014 3.69805V4.71572H19.2066ZM28.8415 30.3157C32.5876 31.5905 37.995 32.582 41.4871 31.3964C36.9791 30.8718 34.4024 30.5623 30.8309 29.0882V30.3157H28.8415Z" fill="#686279"/>
<path fill-rule="evenodd" clip-rule="evenodd" d="M42.428 15.6273C43.3062 15.6273 43.899 16.241 43.899 17.1119V23.2968C43.899 24.1677 43.3062 24.8548 42.428 24.8548C41.5497 24.8548 40.8672 24.1677 40.8672 23.2968V17.1119C40.8672 16.241 41.5551 15.6273 42.428 15.6273ZM52.4544 18.2608C52.4544 15.2916 50.8514 12.8312 48.5283 11.4359C46.7775 10.3866 44.6182 9.96173 42.428 9.96173C40.2376 9.96173 38.0735 10.3866 36.3275 11.4359C34.0048 12.8312 32.4016 15.2339 32.4016 18.203V22.3683C32.4016 25.3375 34.0048 27.7348 36.3275 29.1355C38.0789 30.1847 40.2376 30.6096 42.428 30.6096C44.6182 30.6096 46.7828 30.1847 48.5283 29.1355C50.8514 27.7401 52.4544 25.3375 52.4544 22.3683V18.2608Z" fill="#686279"/>
</g>
</svg>
