<svg width="48" height="48" viewBox="0 0 48 48" fill="none" xmlns="http://www.w3.org/2000/svg">
<g clip-path="url(#clip0_599_2078)">
<path d="M21 -0.75H27V6.75H21V-0.75Z" fill="#F5F5FA"/>
<path d="M30 4V9.86667H18V4H6V48H42V4H30ZM16.5 29.1533C16.4801 28.1745 16.6589 27.2016 17.026 26.2908C17.3931 25.38 17.9412 24.5494 18.6386 23.847C19.336 23.1446 20.169 22.5843 21.0892 22.1987C22.0095 21.813 22.9988 21.6095 24 21.6C23.11 21.6 22.24 21.3419 21.4999 20.8585C20.7599 20.375 20.1831 19.6878 19.8425 18.8838C19.5019 18.0798 19.4128 17.1951 19.5865 16.3416C19.7601 15.4881 20.1887 14.7041 20.818 14.0887C21.4474 13.4734 22.2492 13.0543 23.1221 12.8845C23.995 12.7148 24.8998 12.8019 25.7221 13.1349C26.5443 13.468 27.2471 14.0319 27.7416 14.7555C28.2361 15.4791 28.5 16.3298 28.5 17.2C28.5 18.367 28.0259 19.4861 27.182 20.3113C26.3381 21.1364 25.1935 21.6 24 21.6C25.0012 21.6095 25.9905 21.813 26.9108 22.1987C27.831 22.5843 28.664 23.1446 29.3614 23.847C30.0588 24.5494 30.6069 25.38 30.974 26.2908C31.3411 27.2016 31.5199 28.1745 31.5 29.1533V30.4H16.5V29.1533Z" fill="#F5F5FA"/>
<path d="M14 35H34V38H14V35Z" fill="#6B49D4"/>
<path d="M14 40H29V43H14V40Z" fill="#6B49D4"/>
</g>
<defs>
<clipPath id="clip0_599_2078">
<rect width="48" height="48" fill="white"/>
</clipPath>
</defs>
</svg>
