<svg width="44" height="44" viewBox="0 0 44 44" fill="none" xmlns="http://www.w3.org/2000/svg">
<g clip-path="url(#clip0_599_2085)">
<path d="M36.7109 0L34.9234 1.7875L34.6484 1.5125C34.1756 1.03649 33.6132 0.658706 32.9938 0.40091C32.3743 0.143115 31.71 0.0103965 31.0391 0.0103965C30.3681 0.0103965 29.7038 0.143115 29.0843 0.40091C28.4649 0.658706 27.9025 1.03649 27.4297 1.5125L17.6672 11.275C17.5096 11.3932 17.3792 11.5439 17.2849 11.7168C17.1906 11.8898 17.1346 12.081 17.1206 12.2775C17.1067 12.474 17.1351 12.6712 17.204 12.8558C17.2729 13.0404 17.3806 13.208 17.5199 13.3473C17.6592 13.4866 17.8268 13.5943 18.0114 13.6632C18.1959 13.7321 18.3932 13.7605 18.5897 13.7465C18.7862 13.7326 18.9774 13.6765 19.1503 13.5823C19.3233 13.488 19.474 13.3576 19.5922 13.2L29.3547 3.4375C29.8011 3.01691 30.3913 2.78269 31.0047 2.78269C31.618 2.78269 32.2082 3.01691 32.6547 3.4375L32.9297 3.7125L26.0547 10.6562L33.3422 17.9438L43.9984 7.2875L36.7109 0Z" fill="#F5F5FA"/>
<path d="M7.8375 28.875L8.73125 29.7688H8.1125C7.29698 29.7584 6.48762 29.9112 5.732 30.2182C4.97638 30.5252 4.28976 30.9801 3.7125 31.5563L3.1625 32.175C2.74437 32.7131 2.41906 33.3173 2.2 33.9625C0.825 37.1938 0.1375 42.075 0.1375 42.2813L0 44L1.7875 43.7938C1.99375 43.7938 7.0125 43.1063 10.2437 41.6625C10.8091 41.4681 11.3421 41.19 11.825 40.8375L12.5125 40.2875C13.0887 39.7103 13.5436 39.0236 13.8506 38.268C14.1575 37.5124 14.3103 36.703 14.3 35.8875V35.2688L15.1938 36.1625L31.4188 19.9375L24.0625 12.65L7.8375 28.875ZM10.5188 38.3625L10.175 38.6375L9.28125 39.1188H9.2125C8.10006 39.5826 6.95005 39.9506 5.775 40.2188L8.1125 37.8125C8.31109 37.5477 8.4075 37.2202 8.38404 36.8901C8.36058 36.5599 8.21881 36.2493 7.98477 36.0153C7.75073 35.7812 7.44012 35.6394 7.10997 35.616C6.77982 35.5925 6.45229 35.6889 6.1875 35.8875L3.78125 38.2938C4.03552 37.1454 4.38035 36.019 4.8125 34.925V34.7875C4.93802 34.4159 5.12384 34.0675 5.3625 33.7563L5.6375 33.4813C5.95801 33.1608 6.3385 32.9065 6.75727 32.7331C7.17603 32.5596 7.62486 32.4703 8.07812 32.4703C8.53139 32.4703 8.98022 32.5596 9.39898 32.7331C9.81775 32.9065 10.1982 33.1608 10.5188 33.4813C10.8393 33.8018 11.0935 34.1823 11.267 34.601C11.4404 35.0198 11.5297 35.4686 11.5297 35.9219C11.5297 36.3752 11.4404 36.824 11.267 37.2428C11.0935 37.6615 10.8393 38.042 10.5188 38.3625Z" fill="#F5F5FA"/>
</g>
<defs>
<clipPath id="clip0_599_2085">
<rect width="44" height="44" fill="white"/>
</clipPath>
</defs>
</svg>
