<svg width="44" height="44" viewBox="0 0 44 44" fill="none" xmlns="http://www.w3.org/2000/svg">
<g clip-path="url(#clip0_599_2070)">
<path d="M14.1625 29.5625C18.4938 28.8063 17.875 27.3625 17.875 26.5375V25.9875C16.8438 25.0938 16.7063 23.7188 16.2938 22.1375C14.9875 22.1375 14.6437 19.3875 14.6437 18.975C14.6437 18.5625 14.575 16.9125 15.95 16.9125C15.0563 13.4062 15.2625 9.96875 17.6688 9.96875C23.4438 5.98125 31.075 9.075 28.1875 16.9125C29.4937 16.9125 29.4938 18.5625 29.4938 18.975C29.4938 19.3875 29.2188 22.1375 27.8438 22.1375C27.4312 23.7188 27.225 25.025 26.1937 25.9875V26.4688C26.1937 27.3625 25.575 28.6688 29.9062 29.4938C30.8749 29.6842 31.7848 30.1011 32.5615 30.7105C33.3382 31.3199 33.9596 32.1044 34.375 33H39.875V-8.625H4.125V33H9.625C10.0462 32.1022 10.6792 31.3203 11.4697 30.7214C12.2601 30.1226 13.1842 29.7249 14.1625 29.5625Z" fill="#F5F5FA"/>
<path d="M4.125 35.75H39.875V42.625H4.125V35.75Z" fill="#F5F5FA"/>
</g>
<defs>
<clipPath id="clip0_599_2070">
<rect width="44" height="44" fill="white"/>
</clipPath>
</defs>
</svg>
