<svg width="32" height="32" viewBox="0 0 32 32" fill="none" xmlns="http://www.w3.org/2000/svg">
<path d="M28.6183 9C28.7796 9 28.8745 8.81879 28.7827 8.68615L24.213 2.08615C24.1756 2.03219 24.1142 2 24.0485 2H7.95147C7.88585 2 7.8244 2.03219 7.78704 2.08615L3.21731 8.68615C3.12546 8.81879 3.2204 9 3.38174 9H28.6183Z" fill="#F5F5FA"/>
<path d="M3 11C2.44771 11 2 11.4477 2 12V29C2 29.5523 2.44772 30 3 30H29C29.5523 30 30 29.5523 30 29V12C30 11.4477 29.5523 11 29 11H3ZM20.6667 18.6H11.3333C10.8383 18.6 10.3635 18.3998 10.0134 18.0435C9.66333 17.6872 9.46667 17.2039 9.46667 16.7C9.46667 16.1961 9.66333 15.7128 10.0134 15.3565C10.3635 15.0002 10.8383 14.8 11.3333 14.8H20.6667C21.1617 14.8 21.6365 15.0002 21.9866 15.3565C22.3367 15.7128 22.5333 16.1961 22.5333 16.7C22.5333 17.2039 22.3367 17.6872 21.9866 18.0435C21.6365 18.3998 21.1617 18.6 20.6667 18.6Z" fill="#F5F5FA"/>
</svg>
