<svg width="17" height="16" viewBox="0 0 17 16" fill="none" xmlns="http://www.w3.org/2000/svg">
<path d="M5.33333 0.666504V1.99984H2.66667C2.29848 1.99984 2 2.29832 2 2.6665V13.3332C2 13.7014 2.29848 13.9998 2.66667 13.9998H7.8364C7.10448 13.0868 6.66667 11.9278 6.66667 10.6665C6.66667 7.72097 9.05447 5.33317 12 5.33317C13.2613 5.33317 14.4203 5.77098 15.3333 6.50292V2.6665C15.3333 2.29832 15.0349 1.99984 14.6667 1.99984H12V0.666504H10.6667V1.99984H6.66667V0.666504H5.33333ZM16 10.6665C16 12.8756 14.2091 14.6665 12 14.6665C9.79087 14.6665 8 12.8756 8 10.6665C8 8.45737 9.79087 6.6665 12 6.6665C14.2091 6.6665 16 8.45737 16 10.6665ZM11.3333 7.99984V10.9426L12.8619 12.4712L13.8047 11.5284L12.6667 10.3904V7.99984H11.3333Z" fill="#E6E6F5"/>
</svg>
