<svg width="64" height="64" viewBox="0 0 64 64" fill="none" xmlns="http://www.w3.org/2000/svg">
<path d="M14 59H50V63H14V59ZM14 53H22C22 50.8783 21.1571 48.8434 19.6569 47.3431C18.1566 45.8429 16.1217 45 14 45V53ZM50 53V45C47.8783 45 45.8434 45.8429 44.3431 47.3431C42.8429 48.8434 42 50.8783 42 53H50Z" fill="#6B49D4"/>
<path d="M50 9H14V41C17.1826 41 20.2348 42.2643 22.4853 44.5147C24.7357 46.7652 26 49.8174 26 53H38C38 49.8174 39.2643 46.7652 41.5147 44.5147C43.7652 42.2643 46.8174 41 50 41V9ZM34 36.2V37C34 37.5304 33.7893 38.0391 33.4142 38.4142C33.0391 38.7893 32.5304 39 32 39C31.4696 39 30.9609 38.7893 30.5858 38.4142C30.2107 38.0391 30 37.5304 30 37V36.2C28.5567 35.7697 27.2907 34.8854 26.39 33.6784C25.4892 32.4714 25.0018 31.0061 25 29.5C25 28.9696 25.2107 28.4609 25.5858 28.0858C25.9609 27.7107 26.4696 27.5 27 27.5C27.5304 27.5 28.0391 27.7107 28.4142 28.0858C28.7893 28.4609 29 28.9696 29 29.5C29 30.2956 29.3161 31.0587 29.8787 31.6213C30.4413 32.1839 31.2044 32.5 32 32.5C33.5 32.5 35 31.7 35 29.9C35 28.1 35 28 31.6 27.3C25.8 26 25 22.6 25 20.7C25.0055 19.2411 25.5016 17.8265 26.4086 16.6838C27.3155 15.5411 28.5805 14.7367 30 14.4V13.6C30 13.0696 30.2107 12.5609 30.5858 12.1858C30.9609 11.8107 31.4696 11.6 32 11.6C32.5304 11.6 33.0391 11.8107 33.4142 12.1858C33.7893 12.5609 34 13.0696 34 13.6V14.4C35.2606 14.7784 36.389 15.5045 37.2557 16.495C38.1224 17.4855 38.6923 18.7003 38.9 20C38.9885 20.2717 39.0178 20.5593 38.9858 20.8432C38.9539 21.1272 38.8614 21.4011 38.7147 21.6463C38.568 21.8916 38.3704 22.1025 38.1353 22.265C37.9002 22.4274 37.633 22.5376 37.3517 22.5881C37.0704 22.6386 36.7816 22.6282 36.5047 22.5577C36.2277 22.4871 35.9691 22.358 35.7463 22.1791C35.5234 22.0002 35.3415 21.7756 35.2128 21.5205C35.0841 21.2653 35.0115 20.9855 35 20.7C34.8807 19.9938 34.5127 19.3536 33.9625 18.895C33.4122 18.4365 32.7161 18.19 32 18.2C30.5 18.2 29 19 29 20.8C29 22.6 29 22.6 32.4 23.4C38.1 24.7 39 28 39 29.9C38.9945 31.3589 38.4984 32.7735 37.5914 33.9162C36.6845 35.0589 35.4195 35.8633 34 36.2Z" fill="#6B49D4"/>
<path d="M59 1H5C4.20435 1 3.44129 1.31607 2.87868 1.87868C2.31607 2.44129 2 3.20435 2 4V22C2 22.7956 2.31607 23.5587 2.87868 24.1213C3.44129 24.6839 4.20435 25 5 25H10V6H54V25H59C59.7957 25 60.5587 24.6839 61.1213 24.1213C61.6839 23.5587 62 22.7956 62 22V4C62 3.20435 61.6839 2.44129 61.1213 1.87868C60.5587 1.31607 59.7957 1 59 1Z" fill="#6B49D4"/>
</svg>
