<svg width="64" height="64" viewBox="0 0 64 64" fill="none" xmlns="http://www.w3.org/2000/svg">
<g clip-path="url(#clip0_237_2126)">
<path d="M31.4922 33.5C32.3206 33.5 32.9922 32.8284 32.9922 32C32.9922 31.1716 32.3206 30.5 31.4922 30.5C30.6638 30.5 29.9922 31.1716 29.9922 32C29.9922 32.8284 30.6638 33.5 31.4922 33.5Z" fill="#6B49D4"/>
<path d="M32 0C25.671 0 19.4841 1.87677 14.2218 5.39297C8.95939 8.90918 4.85787 13.9069 2.43587 19.7541C0.013865 25.6014 -0.619842 32.0355 0.614885 38.2429C1.84961 44.4503 4.89732 50.1521 9.3726 54.6274C13.8479 59.1027 19.5497 62.1504 25.7571 63.3851C31.9645 64.6199 38.3986 63.9861 44.2459 61.5641C50.0931 59.1421 55.0908 55.0406 58.607 49.7782C62.1232 44.5159 64 38.329 64 32C64 23.5131 60.6286 15.3737 54.6274 9.37258C48.6263 3.37142 40.4869 0 32 0ZM31.91 56C27.8937 56.0025 23.9409 54.997 20.4139 53.0757C16.8869 51.1544 13.8985 48.3786 11.7225 45.0028C9.54654 41.627 8.25255 37.759 7.95912 33.7534C7.66569 29.7478 8.38221 25.7326 10.043 22.0757C11.7038 18.4188 14.2558 15.2372 17.4652 12.8224C20.6745 10.4076 24.4386 8.83682 28.4124 8.25402C32.3863 7.67122 36.4428 8.09502 40.2104 9.48659C43.978 10.8782 47.3361 13.193 49.977 16.219L49.959 9.979C49.959 9.71378 50.0644 9.45943 50.2519 9.27189C50.4394 9.08436 50.6938 8.979 50.959 8.979C51.2303 8.98344 51.4895 9.09183 51.6832 9.28181C51.8769 9.47178 51.9903 9.72886 52 10V20H42C41.7313 19.9969 41.4745 19.8885 41.2847 19.6982C41.0949 19.5079 40.9874 19.2507 40.985 18.982C40.985 18.7168 41.0904 18.4624 41.2779 18.2749C41.4654 18.0874 41.7198 17.982 41.985 17.982H48.865C46.5036 15.1257 43.459 12.9123 40.0136 11.5471C36.5682 10.1819 32.8338 9.7092 29.157 10.1728C25.4801 10.6365 21.9799 12.0215 18.9813 14.1992C15.9827 16.377 13.5828 19.277 12.0044 22.63C10.426 25.9831 9.72026 29.6805 9.95259 33.3792C10.1849 37.0779 11.3479 40.658 13.3335 43.7872C15.3191 46.9163 18.063 49.4932 21.3105 51.2786C24.5581 53.064 28.204 54.0001 31.91 54C32.1752 54 32.4296 54.1054 32.6171 54.2929C32.8047 54.4804 32.91 54.7348 32.91 55C32.91 55.2652 32.8047 55.5196 32.6171 55.7071C32.4296 55.8946 32.1752 56 31.91 56ZM34.994 32C34.9909 32.5254 34.8681 33.0432 34.635 33.514L41.972 39.767C42.1272 39.8931 42.2556 40.0489 42.3497 40.2253C42.4437 40.4017 42.5016 40.5951 42.5199 40.7942C42.5381 40.9933 42.5164 41.194 42.4559 41.3846C42.3955 41.5752 42.2976 41.7517 42.1679 41.9039C42.0383 42.0561 41.8795 42.1808 41.701 42.2708C41.5224 42.3607 41.3277 42.4141 41.1282 42.4277C40.9288 42.4413 40.7286 42.4149 40.5395 42.35C40.3504 42.2852 40.1761 42.1832 40.027 42.05L32.242 35.415C31.404 35.6006 30.527 35.471 29.7785 35.0509C29.03 34.6308 28.4625 33.9497 28.1844 33.1377C27.9063 32.3257 27.9371 31.4397 28.2709 30.6489C28.6047 29.8582 29.2182 29.2181 29.994 28.851V15.027C29.994 14.6292 30.1521 14.2476 30.4334 13.9663C30.7147 13.685 31.0962 13.527 31.494 13.527C31.6899 13.5238 31.8845 13.5595 32.0664 13.632C32.2484 13.7045 32.4143 13.8124 32.5543 13.9493C32.6944 14.0863 32.8059 14.2497 32.8824 14.43C32.9589 14.6104 32.9989 14.8041 33 15V29C33.5892 29.2505 34.092 29.6682 34.4464 30.2013C34.8007 30.7345 34.9911 31.3598 34.994 32ZM43.453 53.046C41.5028 54.1183 39.4122 54.9126 37.242 55.406C37.1688 55.4221 37.094 55.4301 37.019 55.43C36.7725 55.4308 36.5343 55.3405 36.3503 55.1765C36.1663 55.0124 36.0494 54.7862 36.022 54.5412C35.9946 54.2962 36.0586 54.0497 36.2019 53.849C36.3451 53.6484 36.5574 53.5077 36.798 53.454C38.7867 53.0031 40.7023 52.2757 42.489 51.293C42.7206 51.174 42.9895 51.15 43.2385 51.2262C43.4875 51.3023 43.6969 51.4726 43.8224 51.7008C43.9478 51.929 43.9793 52.1971 43.9101 52.4481C43.8409 52.6991 43.6766 52.9132 43.452 53.045L43.453 53.046ZM51.244 46.222C50.0396 47.8594 48.6327 49.3378 47.057 50.622C46.9552 50.705 46.838 50.7671 46.7121 50.8048C46.5863 50.8425 46.4542 50.8551 46.3235 50.8418C46.1928 50.8284 46.0661 50.7895 45.9504 50.7272C45.8348 50.6648 45.7325 50.5803 45.6495 50.4785C45.5665 50.3767 45.5044 50.2595 45.4667 50.1336C45.429 50.0078 45.4164 49.8757 45.4298 49.745C45.4431 49.6143 45.482 49.4875 45.5444 49.3719C45.6067 49.2562 45.6912 49.154 45.793 49.071C47.2378 47.8946 48.5283 46.5405 49.634 45.041C49.7099 44.9304 49.8073 44.8362 49.9204 44.764C50.0335 44.6918 50.1599 44.6431 50.2922 44.6208C50.4245 44.5985 50.5599 44.6031 50.6904 44.6342C50.8209 44.6653 50.9438 44.7224 51.0518 44.802C51.1598 44.8816 51.2507 44.9821 51.319 45.0975C51.3873 45.213 51.4317 45.341 51.4496 45.4739C51.4674 45.6069 51.4583 45.7421 51.4228 45.8715C51.3874 46.0008 51.3262 46.1218 51.243 46.227L51.244 46.222ZM53.43 42.637C53.347 42.8046 53.2186 42.9455 53.0596 43.0438C52.9005 43.142 52.717 43.1937 52.53 43.193C52.3766 43.1945 52.2249 43.1603 52.087 43.093C51.8496 42.9751 51.6687 42.7677 51.5841 42.5164C51.4995 42.2651 51.5182 41.9905 51.636 41.753C52.1495 40.7157 52.5798 39.6393 52.923 38.534C52.96 38.4063 53.022 38.2873 53.1055 38.1839C53.1889 38.0804 53.2922 37.9947 53.4092 37.9316C53.5262 37.8685 53.6546 37.8294 53.7869 37.8166C53.9192 37.8037 54.0527 37.8174 54.1797 37.8567C54.3066 37.8961 54.4245 37.9603 54.5263 38.0458C54.6281 38.1312 54.7119 38.2361 54.7728 38.3542C54.8336 38.4724 54.8702 38.6015 54.8806 38.7341C54.8909 38.8666 54.8748 38.9998 54.833 39.126C54.4591 40.3317 53.99 41.5057 53.43 42.637Z" fill="#6B49D4"/>
</g>
<defs>
<clipPath id="clip0_237_2126">
<rect width="64" height="64" fill="white"/>
</clipPath>
</defs>
</svg>
