<svg width="32" height="32" viewBox="0 0 32 32" fill="none" xmlns="http://www.w3.org/2000/svg">
<g clip-path="url(#clip0_237_1488)">
<path d="M16.0001 17.5998C16.5891 17.5998 17.0666 17.1223 17.0666 16.5333C17.0666 15.9443 16.5891 15.4668 16.0001 15.4668C15.4111 15.4668 14.9336 15.9443 14.9336 16.5333C14.9336 17.1223 15.4111 17.5998 16.0001 17.5998Z" fill="#F5F5FA"/>
<path d="M27.2327 16.0002C27.2327 15.8676 27.2854 15.7404 27.3792 15.6466C27.4729 15.5529 27.6001 15.5002 27.7327 15.5002H31.9867C31.9143 13.0309 31.2681 10.6125 30.0992 8.4362L27.7952 9.7667C27.7383 9.80005 27.6754 9.82181 27.6101 9.83074C27.5447 9.83968 27.4783 9.8356 27.4145 9.81874C27.3508 9.80189 27.291 9.77259 27.2386 9.73254C27.1862 9.69248 27.1423 9.64246 27.1093 9.58536C27.0764 9.52825 27.055 9.46519 27.0465 9.3998C27.038 9.33441 27.0425 9.26799 27.0598 9.20435C27.0771 9.14071 27.1068 9.08112 27.1472 9.02901C27.1876 8.9769 27.2379 8.93329 27.2952 8.9007L29.5952 7.5712C28.2926 5.47361 26.5244 3.70422 24.4277 2.4002L23.0992 4.7032C23.0666 4.76052 23.023 4.81083 22.9709 4.85123C22.9188 4.89163 22.8592 4.92132 22.7956 4.9386C22.7319 4.95588 22.6655 4.9604 22.6001 4.9519C22.5347 4.9434 22.4717 4.92205 22.4146 4.88908C22.3574 4.85611 22.3074 4.81217 22.2674 4.75979C22.2273 4.7074 22.198 4.64762 22.1812 4.58387C22.1643 4.52012 22.1602 4.45366 22.1692 4.38833C22.1781 4.323 22.1999 4.26008 22.2332 4.2032L23.5627 1.9002C21.3866 0.731364 18.9683 0.0851438 16.4992 0.0126953V4.2667C16.4992 4.3993 16.4465 4.52648 16.3528 4.62025C16.259 4.71402 16.1318 4.7667 15.9992 4.7667C15.8666 4.7667 15.7394 4.71402 15.6457 4.62025C15.5519 4.52648 15.4992 4.3993 15.4992 4.2667V0.0126953C13.03 0.0850849 10.6115 0.731306 8.43522 1.9002L9.76572 4.2042C9.83098 4.31897 9.84819 4.45491 9.81359 4.58233C9.779 4.70975 9.69541 4.81831 9.58107 4.88433C9.46672 4.95035 9.33091 4.96846 9.20326 4.93471C9.07561 4.90097 8.96649 4.8181 8.89972 4.7042L7.57072 2.4002C5.47259 3.70376 3.70299 5.47319 2.39922 7.5712L4.69922 8.9007C4.81312 8.96747 4.89599 9.07659 4.92974 9.20424C4.96349 9.33188 4.94537 9.4677 4.87936 9.58204C4.81334 9.69639 4.70477 9.77998 4.57735 9.81457C4.44993 9.84916 4.314 9.83195 4.19922 9.7667L1.89922 8.4362C0.730329 10.6125 0.0841083 13.0309 0.0117188 15.5002H4.26572C4.39833 15.5002 4.5255 15.5529 4.61927 15.6466C4.71304 15.7404 4.76572 15.8676 4.76572 16.0002C4.76572 16.1328 4.71304 16.26 4.61927 16.3537C4.5255 16.4475 4.39833 16.5002 4.26572 16.5002H0.0117188C0.0841083 18.9694 0.730329 21.3879 1.89922 23.5642L4.20322 22.2337C4.2601 22.2003 4.32302 22.1786 4.38836 22.1696C4.45369 22.1607 4.52014 22.1648 4.58389 22.1816C4.64764 22.1985 4.70743 22.2278 4.75981 22.2679C4.81219 22.3079 4.85613 22.3579 4.8891 22.415C4.92207 22.4721 4.94342 22.5352 4.95192 22.6006C4.96042 22.666 4.9559 22.7324 4.93862 22.796C4.92135 22.8597 4.89165 22.9193 4.85125 22.9714C4.81085 23.0235 4.76054 23.0671 4.70322 23.0997L2.39922 24.4292C3.70283 26.5272 5.47226 28.2966 7.57022 29.6002L8.89922 27.3002C8.93181 27.2429 8.97542 27.1926 9.02753 27.1522C9.07965 27.1118 9.13924 27.0821 9.20287 27.0648C9.26651 27.0475 9.33294 27.043 9.39832 27.0515C9.46371 27.06 9.52678 27.0813 9.58388 27.1143C9.64099 27.1473 9.69101 27.1912 9.73106 27.2436C9.77112 27.296 9.80041 27.3558 9.81727 27.4195C9.83412 27.4833 9.8382 27.5497 9.82927 27.6151C9.82034 27.6804 9.79857 27.7433 9.76522 27.8002L8.43522 30.1002C10.6115 31.2691 13.03 31.9153 15.4992 31.9877V27.7337C15.4992 27.6011 15.5519 27.4739 15.6457 27.3801C15.7394 27.2864 15.8666 27.2337 15.9992 27.2337C16.1318 27.2337 16.259 27.2864 16.3528 27.3801C16.4465 27.4739 16.4992 27.6011 16.4992 27.7337V31.9877C18.9685 31.9153 21.387 31.2691 23.5632 30.1002L22.2327 27.7962C22.1994 27.7393 22.1776 27.6764 22.1687 27.6111C22.1597 27.5457 22.1638 27.4793 22.1807 27.4155C22.1975 27.3518 22.2268 27.292 22.2669 27.2396C22.3069 27.1872 22.3569 27.1433 22.4141 27.1103C22.4712 27.0773 22.5342 27.056 22.5996 27.0475C22.665 27.039 22.7314 27.0435 22.7951 27.0608C22.8587 27.0781 22.9183 27.1078 22.9704 27.1482C23.0225 27.1886 23.0661 27.2389 23.0987 27.2962L24.4277 29.5962C26.5254 28.2938 28.295 26.5258 29.5992 24.4292L27.2992 23.0997C27.2419 23.0671 27.1916 23.0235 27.1512 22.9714C27.1108 22.9193 27.0811 22.8597 27.0638 22.796C27.0465 22.7324 27.042 22.666 27.0505 22.6006C27.059 22.5352 27.0804 22.4721 27.1133 22.415C27.1463 22.3579 27.1902 22.3079 27.2426 22.2679C27.295 22.2278 27.3548 22.1985 27.4185 22.1816C27.4823 22.1648 27.5487 22.1607 27.6141 22.1696C27.6794 22.1786 27.7423 22.2003 27.7992 22.2337L30.0992 23.5642C31.2681 21.3879 31.9143 18.9694 31.9867 16.5002H27.7327C27.6001 16.5002 27.4729 16.4475 27.3792 16.3537C27.2854 16.26 27.2327 16.1328 27.2327 16.0002ZM23.4627 10.1337L18.0242 15.5702C18.1706 15.8704 18.2475 16.1997 18.2492 16.5337C18.2492 17.1304 18.0122 17.7027 17.5902 18.1247C17.1683 18.5466 16.596 18.7837 15.9992 18.7837C15.4025 18.7837 14.8302 18.5466 14.4082 18.1247C13.9863 17.7027 13.7492 17.1304 13.7492 16.5337C13.7502 16.2616 13.8011 15.992 13.8992 15.7382L10.2297 12.8852C10.1529 12.8235 10.089 12.7473 10.0416 12.6609C9.99424 12.5745 9.96435 12.4796 9.95365 12.3817C9.94295 12.2837 9.95164 12.1847 9.97923 12.0901C10.0068 11.9955 10.0528 11.9073 10.1145 11.8304C10.1762 11.7536 10.2524 11.6897 10.3388 11.6423C10.4252 11.595 10.52 11.5651 10.618 11.5544C10.7159 11.5437 10.815 11.5524 10.9096 11.58C11.0042 11.6076 11.0924 11.6535 11.1692 11.7152L14.8762 14.5952C15.189 14.4069 15.5442 14.3003 15.909 14.2853C16.2738 14.2702 16.6365 14.3472 16.9637 14.5092L22.4022 9.0732C22.5437 8.93658 22.7331 8.86098 22.9298 8.86269C23.1264 8.8644 23.3145 8.94328 23.4536 9.08233C23.5926 9.22139 23.6715 9.4095 23.6732 9.60614C23.6749 9.80279 23.5993 9.99224 23.4627 10.1337Z" fill="#F5F5FA"/>
<path d="M16 17.2832C16.4142 17.2832 16.75 16.9474 16.75 16.5332C16.75 16.119 16.4142 15.7832 16 15.7832C15.5858 15.7832 15.25 16.119 15.25 16.5332C15.25 16.9474 15.5858 17.2832 16 17.2832Z" fill="#F5F5FA"/>
</g>
<defs>
<clipPath id="clip0_237_1488">
<rect width="32" height="32" fill="white"/>
</clipPath>
</defs>
</svg>
