<svg width="32" height="32" viewBox="0 0 32 32" fill="none" xmlns="http://www.w3.org/2000/svg">
<path d="M20.3414 2.34142C20.2154 2.21543 20 2.30466 20 2.48284V7.8C20 7.91046 20.0895 8 20.2 8H25.5172C25.6953 8 25.7846 7.78457 25.6586 7.65858L20.3414 2.34142Z" fill="#F5F5FA"/>
<path d="M18 1.2C18 1.08954 17.9105 1 17.8 1H5.2C5.08954 1 5 1.08954 5 1.2V30.8C5 30.9105 5.08954 31 5.2 31H26.8C26.9105 31 27 30.9105 27 30.8V10.2C27 10.0895 26.9105 10 26.8 10H18.2C18.0895 10 18 9.91046 18 9.8V1.2ZM19.2899 13.3101C19.2966 13.3034 19.3038 13.2971 19.3114 13.2915C19.502 13.1528 19.7355 13.0858 19.9709 13.1025C20.211 13.1196 20.4369 13.2227 20.6071 13.3929C20.7773 13.5631 20.8804 13.789 20.8975 14.0291C20.9142 14.2645 20.8472 14.498 20.7085 14.6886C20.7029 14.6962 20.6966 14.7034 20.6899 14.7101L17.5414 17.8586C17.4633 17.9367 17.4633 18.0633 17.5414 18.1414L20.6899 21.2899C20.6966 21.2966 20.7029 21.3038 20.7085 21.3114C20.8472 21.502 20.9142 21.7355 20.8975 21.9709C20.8804 22.211 20.7773 22.4369 20.6071 22.6071C20.4369 22.7773 20.211 22.8804 19.9709 22.8975C19.7355 22.9142 19.502 22.8472 19.3114 22.7085C19.3038 22.7029 19.2966 22.6966 19.2899 22.69L16.1414 19.5414C16.0633 19.4633 15.9367 19.4633 15.8586 19.5414L12.7101 22.69C12.7034 22.6966 12.6972 22.7038 12.6914 22.7113C12.6068 22.8209 12.5003 22.9117 12.3787 22.978C12.2529 23.0466 12.1138 23.0873 11.9709 23.0975C11.828 23.1076 11.6846 23.087 11.5503 23.0369C11.4161 22.9868 11.2942 22.9084 11.1929 22.8071C11.0916 22.7058 11.0132 22.5839 10.9631 22.4497C10.913 22.3154 10.8924 22.172 10.9025 22.0291C10.9127 21.8862 10.9534 21.7471 11.022 21.6213C11.0883 21.4997 11.1791 21.3932 11.2887 21.3086C11.2962 21.3028 11.3034 21.2966 11.3101 21.2899L14.4586 18.1414C14.5367 18.0633 14.5367 17.9367 14.4586 17.8586L11.3101 14.7101C11.3034 14.7034 11.2962 14.6972 11.2887 14.6914C11.1791 14.6068 11.0883 14.5003 11.022 14.3787C10.9534 14.2529 10.9127 14.1138 10.9025 13.9709C10.8924 13.828 10.913 13.6846 10.9631 13.5503C11.0132 13.4161 11.0916 13.2942 11.1929 13.1929C11.2942 13.0916 11.4161 13.0132 11.5503 12.9631C11.6846 12.913 11.828 12.8924 11.9709 12.9025C12.1138 12.9127 12.2529 12.9534 12.3787 13.022C12.5003 13.0883 12.6068 13.1791 12.6914 13.2887C12.6972 13.2962 12.7034 13.3034 12.7101 13.3101L15.8586 16.4586C15.9367 16.5367 16.0633 16.5367 16.1414 16.4586L19.2899 13.3101Z" fill="#F5F5FA"/>
</svg>
