<svg width="60" height="66" viewBox="0 0 60 66" fill="none" xmlns="http://www.w3.org/2000/svg">
<path d="M0 22.7368H60V64.7368C60 65.4345 59.4518 66 58.7755 66H1.22449C0.548222 66 0 65.4345 0 64.7368V22.7368Z" fill="#6B49D4"/>
<path fill-rule="evenodd" clip-rule="evenodd" d="M50.2041 0C49.5278 0 48.9796 0.565535 48.9796 1.26316V7.89474H38.2653V1.57895C38.2653 0.881325 37.7171 0.315789 37.0408 0.315789H36.7347C36.0584 0.315789 35.5102 0.881324 35.5102 1.57895V7.89474H24.7959V1.89474C24.7959 1.19711 24.2477 0.631579 23.5714 0.631579H23.2653C22.589 0.631579 22.0408 1.19711 22.0408 1.89474V7.89474H11.3265V2.21053C11.3265 1.5129 10.7783 0.947368 10.102 0.947368H9.79592C9.11965 0.947368 8.57143 1.5129 8.57143 2.21053V7.89474H2.44898C1.09645 7.89474 0 9.02581 0 10.4211V20.5263H60V10.4211C60 9.02581 58.9036 7.89474 57.551 7.89474H51.7347V1.26316C51.7347 0.565535 51.1865 0 50.5102 0H50.2041ZM8.57143 9.47368V7.89474H11.3265V9.47368V11.6842H8.57143V9.47368ZM22.0408 7.89474H24.7959V9.15789V11.6842H22.0408V9.15789V7.89474ZM35.5102 7.89474H38.2653V11.6842H35.5102V7.89474ZM51.7347 7.89474V8.52632V11.6842H48.9796V8.52632V7.89474H51.7347Z" fill="#6B49D4"/>
<path d="M49.2857 30.6316H53.2653V34.7368H49.2857V30.6316Z" fill="#F5F5FA"/>
<path d="M49.2857 37.8947H53.2653V42H49.2857V37.8947Z" fill="#F5F5FA"/>
<path d="M49.2857 45.1579H53.2653V49.2632H49.2857V45.1579Z" fill="#F5F5FA"/>
<path d="M49.2857 52.4211H53.2653V56.5263H49.2857V52.4211Z" fill="#F5F5FA"/>
<path d="M42.2449 30.6316H46.2245V34.7368H42.2449V30.6316Z" fill="#F5F5FA"/>
<path d="M42.2449 37.8947H46.2245V42H42.2449V37.8947Z" fill="#F5F5FA"/>
<path d="M42.2449 45.1579H46.2245V49.2632H42.2449V45.1579Z" fill="#F5F5FA"/>
<path d="M42.2449 52.4211H46.2245V56.5263H42.2449V52.4211Z" fill="#F5F5FA"/>
<path d="M35.2041 30.6316H39.1837V34.7368H35.2041V30.6316Z" fill="#F5F5FA"/>
<path d="M35.2041 37.8947H39.1837V42H35.2041V37.8947Z" fill="#F5F5FA"/>
<path d="M35.2041 45.1579H39.1837V49.2632H35.2041V45.1579Z" fill="#F5F5FA"/>
<path d="M35.2041 52.4211H39.1837V56.5263H35.2041V52.4211Z" fill="#F5F5FA"/>
<path d="M28.1633 30.6316H32.1429V34.7368H28.1633V30.6316Z" fill="#F5F5FA"/>
<path d="M28.1633 37.8947H32.1429V42H28.1633V37.8947Z" fill="#F5F5FA"/>
<path d="M28.1633 45.1579H32.1429V49.2632H28.1633V45.1579Z" fill="#F5F5FA"/>
<path d="M28.1633 52.4211H32.1429V56.5263H28.1633V52.4211Z" fill="#F5F5FA"/>
<path d="M21.1224 30.6316H25.102V34.7368H21.1224V30.6316Z" fill="#F5F5FA"/>
<path d="M21.1224 37.8947H25.102V42H21.1224V37.8947Z" fill="#F5F5FA"/>
<path d="M21.1224 45.1579H25.102V49.2632H21.1224V45.1579Z" fill="#F5F5FA"/>
<path d="M21.1224 52.4211H25.102V56.5263H21.1224V52.4211Z" fill="#F5F5FA"/>
<path d="M14.0816 30.6316H18.0612V34.7368H14.0816V30.6316Z" fill="#F5F5FA"/>
<path d="M14.0816 37.8947H18.0612V42H14.0816V37.8947Z" fill="#F5F5FA"/>
<path d="M14.0816 45.1579H18.0612V49.2632H14.0816V45.1579Z" fill="#F5F5FA"/>
<path d="M14.0816 52.4211H18.0612V56.5263H14.0816V52.4211Z" fill="#F5F5FA"/>
<path d="M7.04082 30.6316H11.0204V34.7368H7.04082V30.6316Z" fill="#F5F5FA"/>
<path d="M7.04082 37.8947H11.0204V42H7.04082V37.8947Z" fill="#F5F5FA"/>
<path d="M7.04082 45.1579H11.0204V49.2632H7.04082V45.1579Z" fill="#F5F5FA"/>
<path d="M7.04082 52.4211H11.0204V56.5263H7.04082V52.4211Z" fill="#F5F5FA"/>
</svg>
