<svg width="21" height="20" viewBox="0 0 21 20" fill="none" xmlns="http://www.w3.org/2000/svg">
<path d="M10.3333 5V10H14.0833M17.8333 10C17.8333 10.9849 17.6393 11.9602 17.2623 12.8701C16.8854 13.7801 16.333 14.6069 15.6366 15.3033C14.9401 15.9997 14.1133 16.5522 13.2034 16.9291C12.2934 17.306 11.3182 17.5 10.3333 17.5C9.34834 17.5 8.37307 17.306 7.46313 16.9291C6.55318 16.5522 5.72639 15.9997 5.02995 15.3033C4.33351 14.6069 3.78107 13.7801 3.40416 12.8701C3.02725 11.9602 2.83325 10.9849 2.83325 10C2.83325 8.01088 3.62343 6.10322 5.02995 4.6967C6.43647 3.29018 8.34413 2.5 10.3333 2.5C12.3224 2.5 14.23 3.29018 15.6366 4.6967C17.0431 6.10322 17.8333 8.01088 17.8333 10Z" stroke="#5F40CE" stroke-width="1.5" stroke-linecap="round" stroke-linejoin="round"/>
</svg>
