<svg width="24" height="24" viewBox="0 0 24 24" fill="none" xmlns="http://www.w3.org/2000/svg">
<g clip-path="url(#clip0_608_10038)">
<path d="M2.52454 15.4545L13.8739 4.10513L19.8743 10.1063L8.52529 21.4549L2.52454 15.4545Z" fill="#6B49D4"/>
<path d="M23.1 6.9C24.4875 5.3625 24.2625 3.15 22.575 1.425C22.1698 0.991533 21.6829 0.642475 21.1423 0.397915C20.6017 0.153355 20.018 0.0181226 19.425 0C18.5656 0.0032767 17.7376 0.323772 17.1 0.9L23.1 6.9Z" fill="#6B49D4"/>
<path d="M1.725 16.7625L0 24L7.2375 22.3125L1.725 16.7625ZM14.9175 3.08587L16.0312 1.97212L22.0312 7.9725L20.9175 9.08625L14.9175 3.08587Z" fill="#6B49D4"/>
</g>
<defs>
<clipPath id="clip0_608_10038">
<rect width="24" height="24" fill="white"/>
</clipPath>
</defs>
</svg>
