<svg width="82" height="82" viewBox="0 0 82 82" fill="none" xmlns="http://www.w3.org/2000/svg">
<path d="M41 61.5C42.1616 61.5 43.1361 61.1064 43.9233 60.3192C44.7105 59.532 45.1027 58.5589 45.1 57.4C45.0972 56.2411 44.7036 55.268 43.9192 54.4808C43.1347 53.6936 42.1616 53.3 41 53.3C39.8383 53.3 38.8652 53.6936 38.0808 54.4808C37.2963 55.268 36.9027 56.2411 36.9 57.4C36.8972 58.5589 37.2908 59.5333 38.0808 60.3233C38.8707 61.1132 39.8438 61.5055 41 61.5ZM36.9 43.1C36.9 44.2046 37.7954 45.1 38.9 45.1H43.1C44.2045 45.1 45.1 44.2046 45.1 43.1V22.5C45.1 21.3954 44.2045 20.5 43.1 20.5H38.9C37.7954 20.5 36.9 21.3954 36.9 22.5V43.1ZM41 82C35.3283 82 29.9983 80.923 25.01 78.7692C20.0217 76.6153 15.6825 73.6947 11.9925 70.0075C8.3025 66.3202 5.38194 61.981 3.2308 56.99C1.07967 51.9989 0.00273852 46.6689 5.18987e-06 41C-0.00272814 35.3311 1.0742 30.0011 3.2308 25.01C5.3874 20.0189 8.30797 15.6798 11.9925 11.9925C15.677 8.30523 20.0162 5.38467 25.01 3.2308C30.0038 1.07693 35.3338 0 41 0C46.6662 0 51.9962 1.07693 56.99 3.2308C61.9838 5.38467 66.3229 8.30523 70.0075 11.9925C73.692 15.6798 76.6139 20.0189 78.7732 25.01C80.9326 30.0011 82.0081 35.3311 81.9999 41C81.9917 46.6689 80.9148 51.9989 78.7691 56.99C76.6235 61.981 73.7029 66.3202 70.0075 70.0075C66.312 73.6947 61.9728 76.6167 56.99 78.7733C52.0071 80.9299 46.6771 82.0054 41 82Z" fill="#FF3D3D"/>
</svg>
