<svg width="21" height="20" viewBox="0 0 21 20" fill="none" xmlns="http://www.w3.org/2000/svg">
<path d="M19.4171 10.1943C19.4171 9.47489 19.3576 8.94989 19.2286 8.40546H10.8457V11.6526H15.7663C15.6671 12.4596 15.1314 13.6749 13.9409 14.4915L13.9242 14.6002L16.5748 16.6125L16.7584 16.6305C18.4449 15.104 19.4171 12.8582 19.4171 10.1943Z" fill="#4285F4"/>
<path d="M10.8448 18.75C13.2555 18.75 15.2793 17.9722 16.7575 16.6306L13.94 14.4916C13.1861 15.0069 12.1742 15.3666 10.8448 15.3666C8.48375 15.3666 6.4798 13.8402 5.76545 11.7305L5.66074 11.7392L2.90469 13.8295L2.86865 13.9277C4.33689 16.786 7.35275 18.75 10.8448 18.75Z" fill="#34A853"/>
<path d="M5.76713 11.7306C5.57864 11.1862 5.46956 10.6028 5.46956 10C5.46956 9.39722 5.57864 8.81391 5.75722 8.26948L5.75222 8.15352L2.96163 6.02966L2.87033 6.07222C2.26519 7.25835 1.91797 8.59032 1.91797 10C1.91797 11.4098 2.26519 12.7417 2.87033 13.9278L5.76713 11.7306Z" fill="#FBBC05"/>
<path d="M10.8449 4.63331C12.5214 4.63331 13.6524 5.34303 14.2972 5.93613L16.8171 3.525C15.2695 2.11528 13.2556 1.25 10.8449 1.25C7.35278 1.25 4.33689 3.21387 2.86865 6.07218L5.75555 8.26944C6.47982 6.15972 8.48378 4.63331 10.8449 4.63331Z" fill="#EB4335"/>
</svg>
