<svg width="20" height="20" viewBox="0 0 20 20" fill="none" xmlns="http://www.w3.org/2000/svg">
<path d="M10.0228 0H9.97723C4.46696 0 0 4.46696 0 9.97723V10.0228C0 15.533 4.46696 20 9.97723 20H10.0228C15.533 20 20 15.533 20 10.0228V9.97723C20 4.46696 15.533 0 10.0228 0Z" fill="#007EBB"/>
<path d="M4.76948 6.64724C4.50602 6.40269 4.375 6.09999 4.375 5.73983C4.375 5.37967 4.50672 5.06366 4.76948 4.81842C5.03295 4.57387 5.37209 4.45125 5.7876 4.45125C6.20311 4.45125 6.52894 4.57387 6.7917 4.81842C7.05516 5.06296 7.18619 5.37057 7.18619 5.73983C7.18619 6.1091 7.05446 6.40269 6.7917 6.64724C6.52824 6.89178 6.194 7.0144 5.7876 7.0144C5.38119 7.0144 5.03295 6.89178 4.76948 6.64724ZM6.96477 8.05003V15.5475H4.59571V8.05003H6.96477Z" fill="#FEFFFC"/>
<path d="M14.8504 8.79069C15.3668 9.35125 15.6247 10.1206 15.6247 11.1002V15.4151H13.3748V11.4043C13.3748 10.9103 13.2465 10.5263 12.9908 10.253C12.735 9.97977 12.3903 9.84243 11.9587 9.84243C11.527 9.84243 11.1823 9.97907 10.9265 10.253C10.6708 10.5263 10.5425 10.9103 10.5425 11.4043V15.4151H8.2793V8.02903H10.5425V9.00861C10.7717 8.68208 11.0807 8.42422 11.4689 8.23433C11.8571 8.04445 12.2936 7.94985 12.7792 7.94985C13.6438 7.94985 14.3347 8.23013 14.8504 8.79069Z" fill="#FEFFFC"/>
</svg>
