<svg width="16" height="17" viewBox="0 0 16 17" fill="none" xmlns="http://www.w3.org/2000/svg">
<g clip-path="url(#clip0_523_9001)">
<path d="M11 7.0165C11.003 5.99262 10.7203 4.98821 10.1834 4.11634C9.64661 3.24447 8.87707 2.53976 7.96144 2.08154C7.04582 1.62331 6.02046 1.42977 5.0008 1.5227C3.98115 1.61563 3.00767 1.99135 2.18997 2.60754C1.37227 3.22374 0.742803 4.05596 0.372438 5.01051C0.00207224 5.96506 -0.0944884 7.00404 0.0936257 8.0105C0.28174 9.01695 0.74706 9.95091 1.4372 10.7072C2.12735 11.4636 3.01491 12.0123 3.99998 12.2915L5.49998 16.5165L6.99998 12.3165C8.15315 11.9896 9.16797 11.295 9.89002 10.3382C10.6121 9.38151 11.0018 8.21511 11 7.0165Z" fill="#202020"/>
</g>
<defs>
<clipPath id="clip0_523_9001">
<rect width="16" height="16" fill="white" transform="translate(0 0.5)"/>
</clipPath>
</defs>
</svg>
