<svg width="64" height="64" viewBox="0 0 64 64" fill="none" xmlns="http://www.w3.org/2000/svg">
<path d="M52.1981 12.7001C51.8653 12.291 51.3843 12.03 50.8599 11.9738C50.3355 11.9176 49.8101 12.0708 49.3981 12.4001C46.3036 14.7771 42.5 16.045 38.5981 16.0001C38.2841 16.6376 38.1552 17.3503 38.2259 18.0573C38.2966 18.7644 38.5641 19.4375 38.9981 20.0001C43.6769 19.9647 48.2125 18.3825 51.8981 15.5001C52.3072 15.1672 52.5683 14.6863 52.6245 14.1619C52.6806 13.6375 52.5274 13.1121 52.1981 12.7001Z" fill="#6B49D4"/>
<path d="M44.6992 6.1C38.7992 6.1 38.3992 2 34.6992 2C30.9992 2 30.3992 6 24.6992 6C20.6992 6 12.6992 0.4 12.6992 4C12.6992 7.6 18.9992 12.8 22.4992 16H38.5992C43.4992 10.8 46.6992 6.1 44.6992 6.1ZM38.9992 20.1H22.3992C17.5992 24.6 6.69922 36.4 6.69922 52C6.69922 54.6522 7.75279 57.1957 9.62815 59.0711C11.5035 60.9464 14.0471 62 16.6992 62H44.6992C47.3514 62 49.8949 60.9464 51.7703 59.0711C53.6456 57.1957 54.6992 54.6522 54.6992 52C54.6992 36.5 43.8992 24.6 38.9992 20.1ZM32.6992 52.8V54C32.6992 54.5304 32.4885 55.0391 32.1134 55.4142C31.7384 55.7893 31.2297 56 30.6992 56C30.1688 56 29.6601 55.7893 29.285 55.4142C28.9099 55.0391 28.6992 54.5304 28.6992 54V52.7C26.9896 52.2586 25.474 51.264 24.3887 49.8712C23.3034 48.4784 22.7094 46.7657 22.6992 45C22.6992 44.4696 22.9099 43.9609 23.285 43.5858C23.6601 43.2107 24.1688 43 24.6992 43C25.2297 43 25.7384 43.2107 26.1134 43.5858C26.4885 43.9609 26.6992 44.4696 26.6992 45C26.6992 46.0609 27.1206 47.0783 27.8708 47.8284C28.6209 48.5786 29.6384 49 30.6992 49C32.5992 49 34.6992 47.9 34.6992 45.5C34.6992 44.9 34.6992 43 30.2992 42C23.6992 40.5 22.7992 36.7 22.7992 34.6C22.7914 32.8746 23.3867 31.2006 24.4823 29.8676C25.5779 28.5346 27.1049 27.6264 28.7992 27.3V26C28.7992 25.4696 29.0099 24.9609 29.385 24.5858C29.7601 24.2107 30.2688 24 30.7992 24C31.3297 24 31.8384 24.2107 32.2134 24.5858C32.5885 24.9609 32.7992 25.4696 32.7992 26V27.3C34.2955 27.6833 35.6489 28.4916 36.6959 29.6273C37.7428 30.763 38.4386 32.1775 38.6992 33.7C38.7877 33.9717 38.817 34.2593 38.785 34.5432C38.7531 34.8272 38.6606 35.1011 38.5139 35.3463C38.3672 35.5916 38.1696 35.8025 37.9345 35.965C37.6994 36.1274 37.4322 36.2376 37.1509 36.2881C36.8696 36.3386 36.5808 36.3282 36.3039 36.2577C36.0269 36.1871 35.7683 36.058 35.5455 35.8791C35.3226 35.7002 35.1407 35.4756 35.012 35.2205C34.8833 34.9653 34.8107 34.6856 34.7992 34.4C34.6525 33.4287 34.1535 32.5454 33.3974 31.9183C32.6413 31.2913 31.6809 30.9644 30.6992 31C28.7992 31 26.6992 32.1 26.6992 34.5C26.6992 35.1 26.6992 37 31.0992 38C37.5992 39.5 38.5992 43.3 38.5992 45.4C38.635 47.1284 38.0646 48.8148 36.9869 50.1665C35.9091 51.5182 34.3922 52.4499 32.6992 52.8Z" fill="#6B49D4"/>
<path d="M56.9992 24.4C56.0819 23.0429 54.8453 21.9319 53.3981 21.1647C51.9508 20.3975 50.3372 19.9975 48.6992 20C48.1688 20 47.6601 20.2107 47.285 20.5858C46.9099 20.9609 46.6992 21.4696 46.6992 22C46.6992 22.5304 46.9099 23.0392 47.285 23.4142C47.6601 23.7893 48.1688 24 48.6992 24C49.6818 23.9908 50.6516 24.2231 51.5235 24.6764C52.3953 25.1298 53.1424 25.7903 53.6992 26.6C54.0187 26.9655 54.4602 27.2024 54.9414 27.2664C55.4225 27.3304 55.9106 27.2172 56.3145 26.9479C56.7184 26.6787 57.0106 26.2717 57.1366 25.8029C57.2626 25.3341 57.2137 24.8355 56.9992 24.4Z" fill="#6B49D4"/>
</svg>
