<svg width="17" height="16" viewBox="0 0 17 16" fill="none" xmlns="http://www.w3.org/2000/svg">
<g clip-path="url(#clip0_237_1535)">
<path d="M15.832 6.5L14.682 5.35V3.75L13.182 3.125L12.582 1.65H10.957L9.83203 0.5L8.33203 1.125L6.83203 0.5L5.70703 1.65H4.08203L3.45703 3.15L1.98203 3.75V5.375L0.832031 6.5L1.45703 8L0.832031 9.5L1.98203 10.65V12.25L3.48203 12.875L4.10703 14.375H5.73203L6.83203 15.5L8.33203 14.875L9.83203 15.5L10.982 14.35H12.582L13.207 12.85L14.707 12.225V10.625L15.832 9.5L15.207 8L15.832 6.5ZM8.83203 12.125V13C8.83203 13.1326 8.77935 13.2598 8.68559 13.3536C8.59182 13.4473 8.46464 13.5 8.33203 13.5C8.19942 13.5 8.07225 13.4473 7.97848 13.3536C7.88471 13.2598 7.83203 13.1326 7.83203 13V12.125C7.26735 12.0097 6.75983 11.7029 6.39538 11.2565C6.03092 10.81 5.83191 10.2513 5.83203 9.675C5.83203 9.54239 5.88471 9.41521 5.97848 9.32145C6.07225 9.22768 6.19942 9.175 6.33203 9.175C6.46464 9.175 6.59182 9.22768 6.68558 9.32145C6.77935 9.41521 6.83203 9.54239 6.83203 9.675C6.83203 10.0728 6.99007 10.4544 7.27137 10.7357C7.55268 11.017 7.93421 11.175 8.33203 11.175C9.20703 11.175 9.83203 10.625 9.83203 9.85C9.83203 9.075 9.28203 8.75 8.23203 8.5C6.25703 8.05 5.83203 7 5.83203 6.175C5.83255 5.61505 6.03515 5.0741 6.40257 4.65156C6.77 4.22902 7.27758 3.95327 7.83203 3.875V3C7.83203 2.86739 7.88471 2.74021 7.97848 2.64645C8.07225 2.55268 8.19942 2.5 8.33203 2.5C8.46464 2.5 8.59182 2.55268 8.68559 2.64645C8.77935 2.74021 8.83203 2.86739 8.83203 3V3.875C9.32721 3.97362 9.78093 4.21986 10.1335 4.58132C10.486 4.94278 10.7208 5.40251 10.807 5.9C10.8292 5.96793 10.8365 6.03981 10.8285 6.11081C10.8205 6.18181 10.7974 6.25027 10.7607 6.31158C10.724 6.37289 10.6746 6.42563 10.6159 6.46624C10.5571 6.50686 10.4903 6.5344 10.42 6.54702C10.3496 6.55965 10.2774 6.55705 10.2082 6.53941C10.139 6.52178 10.0743 6.48951 10.0186 6.44478C9.96289 6.40005 9.91741 6.3439 9.88523 6.28012C9.85304 6.21633 9.8349 6.14639 9.83203 6.075C9.77307 5.72616 9.5927 5.40938 9.32279 5.18065C9.05289 4.95192 8.71082 4.82595 8.35703 4.825C7.48203 4.825 6.85703 5.375 6.85703 6.15C6.85703 6.4 6.85703 7.125 8.45703 7.5C10.532 7.975 10.857 9.15 10.857 9.825C10.8557 10.3887 10.6496 10.9327 10.2771 11.3558C9.90456 11.7789 9.39103 12.0523 8.83203 12.125Z" fill="#E6E6F5"/>
</g>
<defs>
<clipPath id="clip0_237_1535">
<rect width="16" height="16" fill="white" transform="translate(0.332031)"/>
</clipPath>
</defs>
</svg>
