<svg width="64" height="64" viewBox="0 0 64 64" fill="none" xmlns="http://www.w3.org/2000/svg">
<path d="M51.0008 21.3C48.2008 18.5 51.5008 16 53.5008 16C54.718 16.0788 55.9302 15.7847 56.9761 15.157C58.0219 14.5293 58.8515 13.5978 59.3545 12.4866C59.8574 11.3753 60.0097 10.1372 59.7911 8.93725C59.5725 7.73727 58.9934 6.63241 58.1309 5.76993C57.2684 4.90745 56.1636 4.32832 54.9636 4.10972C53.7636 3.89112 52.5255 4.04344 51.4143 4.54637C50.3031 5.0493 49.3715 5.87896 48.7438 6.92477C48.1161 7.97058 47.822 9.18286 47.9008 10.4C47.9008 12.4 45.4008 15.7 42.6008 12.9L32.0008 2.30005L21.5008 12.8C18.7008 15.6 22.0008 18.1 24.0008 18.1C24.8446 18.037 25.6921 18.1561 26.4858 18.4495C27.2795 18.7428 28.0008 19.2034 28.6008 19.8C29.3161 20.5051 29.8431 21.3783 30.1332 22.3399C30.4234 23.3014 30.4676 24.3204 30.2617 25.3034C30.0558 26.2865 29.6065 27.2021 28.9548 27.9664C28.3032 28.7306 27.4701 29.3191 26.532 29.6778C25.5938 30.0365 24.5807 30.1539 23.5854 30.0194C22.5901 29.8848 21.6444 29.5026 20.8352 28.9077C20.026 28.3128 19.3791 27.5243 18.9537 26.6144C18.5284 25.7045 18.3383 24.7025 18.4008 23.7001C18.4008 21.7001 15.9008 18.4001 13.1008 21.2001L2.30078 32L13.0008 42.7001C15.8008 45.5 12.5008 48 10.5008 48C9.49836 47.9375 8.49629 48.1277 7.58643 48.553C6.67658 48.9783 5.88805 49.6253 5.29314 50.4345C4.69824 51.2437 4.31599 52.1893 4.18144 53.1846C4.04689 54.18 4.16435 55.1931 4.52305 56.1312C4.88174 57.0694 5.4702 57.9025 6.23447 58.5541C6.99874 59.2057 7.91436 59.6551 8.8974 59.861C9.88043 60.0669 10.8994 60.0227 11.861 59.7325C12.8225 59.4423 13.6958 58.9154 14.4008 58.2001C14.9974 57.6001 15.458 56.8787 15.7514 56.085C16.0447 55.2914 16.1639 54.4439 16.1008 53.6C16.1008 51.6 18.6008 48.3 21.4008 51.1L32.0008 61.7001L42.7008 51C45.5008 48.2001 42.2008 45.7001 40.2008 45.7001C38.9906 45.7592 37.7908 45.4505 36.7594 44.8147C35.728 44.1789 34.9132 43.2457 34.4224 42.1379C33.9315 41.0302 33.7875 39.7997 34.0094 38.6086C34.2312 37.4174 34.8085 36.3213 35.6653 35.4646C36.5221 34.6078 37.6181 34.0305 38.8093 33.8086C40.0005 33.5868 41.2309 33.7308 42.3387 34.2216C43.4464 34.7125 44.3796 35.5272 45.0154 36.5587C45.6513 37.5901 45.9599 38.7898 45.9008 40C45.9008 42 48.4008 45.3 51.2008 42.5L61.7008 32L51.0008 21.3Z" fill="#6B49D4"/>
</svg>
