<svg width="44" height="33" viewBox="0 0 44 33" fill="none" xmlns="http://www.w3.org/2000/svg">
<path d="M44 0C43.0695 3.38124 42.139 7.0479 41.2085 11C40.3223 14.9082 39.5025 18.7725 38.7492 22.5928C37.996 26.4132 37.3978 29.8822 36.9547 33H25.1903L24.1934 31.5509C24.9909 28.3453 26.0101 24.9202 27.2508 21.2754C28.5358 17.6307 29.9094 13.986 31.3716 10.3413C32.8781 6.65269 34.3847 3.20559 35.8912 0H44ZM19.5408 0C18.6103 3.38124 17.6798 7.0479 16.7492 11C15.863 14.9082 15.0433 18.7725 14.29 22.5928C13.5368 26.4132 12.9386 29.8822 12.4955 33H0.797583L0 31.5509C0.797583 28.3453 1.79456 24.9202 2.99094 21.2754C4.23162 17.6307 5.58308 13.986 7.04532 10.3413C8.50755 6.65269 9.99194 3.20559 11.4985 0H19.5408Z" fill="#5F40CE"/>
</svg>
