<svg width="37" height="31" viewBox="0 0 37 31" fill="none" xmlns="http://www.w3.org/2000/svg">
<path opacity="0.6" d="M28.0172 30.9933C24.8998 30.9129 22.6439 29.8275 21.2493 27.7372C19.8547 25.6469 19.1574 23.2349 19.1574 20.5014C19.1574 17.3659 19.8136 14.3912 21.1262 11.5773C22.5208 8.76334 24.2846 6.35142 26.4175 4.34148C27.9212 2.92235 29.4816 1.79967 31.0988 0.973429C32.4411 0.287617 34.0301 0.829501 34.9123 2.05177C36.0554 3.6356 35.6631 5.86027 34.233 7.19059C34.0097 7.3983 33.7835 7.61436 33.5545 7.83877C32.406 8.96434 31.3396 10.1703 30.3552 11.4567C29.083 13.2701 30.6959 15.3409 32.5701 16.5217C33.7186 17.1649 34.621 18.0493 35.2773 19.1748C35.9335 20.22 36.2617 21.5064 36.2617 23.0339C36.2617 25.6871 35.4413 27.697 33.8006 29.0638C32.1599 30.4305 30.2321 31.0737 28.0172 30.9933ZM8.98284 30.9933C5.78347 30.9129 3.48649 29.8275 2.09189 27.7372C0.697296 25.6469 0 23.2349 0 20.5014C0 17.3659 0.656281 14.3912 1.96884 11.5773C3.36344 8.76334 5.12719 6.35142 7.2601 4.34148C8.76382 2.92235 10.3243 1.79967 11.9414 0.97343C13.2837 0.287617 14.8728 0.829502 15.7549 2.05177C16.898 3.6356 16.5058 5.86027 15.0756 7.19059C14.8523 7.3983 14.6261 7.61436 14.3972 7.83877C13.2487 8.96434 12.2232 10.1703 11.3208 11.4567C11.3082 11.4746 11.2957 11.4926 11.2832 11.5106C10.0461 13.2875 11.5808 15.3676 13.4127 16.5217C14.5612 17.1649 15.4636 18.0493 16.1199 19.1748C16.7762 20.22 17.1043 21.5064 17.1043 23.0339C17.1043 25.6871 16.284 27.697 14.6433 29.0638C13.0026 30.3501 11.1158 30.9933 8.98284 30.9933Z" fill="#D6C7FD"/>
</svg>
