<svg width="64" height="64" viewBox="0 0 64 64" fill="none" xmlns="http://www.w3.org/2000/svg">
<path d="M60.9987 12C61.0872 10.1218 60.6104 8.26024 59.63 6.65585C58.6495 5.05147 57.2104 3.77798 55.4987 2.99996C53.133 1.97965 50.4966 1.76874 47.9987 2.39996V1.99996H15.9987V2.29996C13.4899 1.70015 10.8532 1.94624 8.4987 2.99996C6.78697 3.77798 5.34789 5.05147 4.36743 6.65585C3.38698 8.26024 2.9102 10.1218 2.9987 12C2.9987 20.1 8.29871 29.5 22.9987 31.5C25.0912 32.8798 27.4998 33.7056 29.9987 33.9V46H15.9987C15.4683 46 14.9596 46.2107 14.5845 46.5857C14.2094 46.9608 13.9987 47.4695 13.9987 48V60C13.9987 60.5304 14.2094 61.0391 14.5845 61.4142C14.9596 61.7892 15.4683 62 15.9987 62H47.9987C48.5291 62 49.0378 61.7892 49.4129 61.4142C49.788 61.0391 49.9987 60.5304 49.9987 60V48C49.9987 47.4695 49.788 46.9608 49.4129 46.5857C49.0378 46.2107 48.5291 46 47.9987 46H33.9987V34C36.4967 33.8013 38.9043 32.9759 40.9987 31.6C55.6987 29.5 60.9987 20.2 60.9987 12ZM47.9987 16.2V6.49996C49.9026 5.7594 52.021 5.7953 53.8987 6.59996C55.2987 7.29996 56.9987 8.69996 56.9987 12C56.9987 18.9 52.7987 24 45.4987 26.4C47.1663 23.2604 48.0255 19.7548 47.9987 16.2ZM6.9987 12C6.9987 8.69996 8.6987 7.29996 10.1987 6.59996C12.0473 5.82222 14.1244 5.78641 15.9987 6.49996V16C15.9596 19.62 16.8186 23.1932 18.4987 26.4C11.1987 24 6.9987 18.9 6.9987 12ZM39.9987 52C40.5291 52 41.0378 52.2107 41.4129 52.5857C41.788 52.9608 41.9987 53.4695 41.9987 54C41.9987 54.5304 41.788 55.0391 41.4129 55.4142C41.0378 55.7892 40.5291 56 39.9987 56H23.9987C23.4683 56 22.9596 55.7892 22.5845 55.4142C22.2094 55.0391 21.9987 54.5304 21.9987 54C21.9987 53.4695 22.2094 52.9608 22.5845 52.5857C22.9596 52.2107 23.4683 52 23.9987 52H39.9987Z" fill="#6B49D4"/>
</svg>
