<svg width="32" height="32" viewBox="0 0 32 32" fill="none" xmlns="http://www.w3.org/2000/svg">
<g clip-path="url(#clip0_230_1378)">
<path d="M31.5005 13.5L27.973 13.3335C27.6646 11.9444 27.1155 10.6201 26.3505 9.42047L28.8225 6.94997C28.922 6.84975 28.9779 6.71422 28.9779 6.57297C28.9779 6.43172 28.922 6.29619 28.8225 6.19597L25.8055 3.17797C25.7052 3.07843 25.5697 3.02257 25.4285 3.02257C25.2872 3.02257 25.1517 3.07843 25.0515 3.17797L22.58 5.64997C21.3804 4.88513 20.0563 4.33617 18.6675 4.02797L18.5005 0.49997C18.5034 0.433535 18.4924 0.367221 18.4683 0.305243C18.4442 0.243264 18.4075 0.186976 18.3605 0.139954C18.3135 0.0929323 18.2572 0.0562052 18.1952 0.0321062C18.1332 0.00800728 18.0669 -0.00293658 18.0005 -3.00089e-05H14.0005C13.934 -0.00293658 13.8677 0.00800728 13.8057 0.0321062C13.7438 0.0562052 13.6875 0.0929323 13.6404 0.139954C13.5934 0.186976 13.5567 0.243264 13.5326 0.305243C13.5085 0.367221 13.4976 0.433535 13.5005 0.49997L13.334 4.02747C11.9449 4.33577 10.6206 4.8849 9.42096 5.64997L6.95046 3.17797C6.85023 3.07843 6.71471 3.02257 6.57346 3.02257C6.4322 3.02257 6.29668 3.07843 6.19646 3.17797L3.17846 6.19497C3.07892 6.29519 3.02306 6.43072 3.02306 6.57197C3.02306 6.71322 3.07892 6.84875 3.17846 6.94897L5.65046 9.42047C4.88564 10.62 4.33669 11.9442 4.02846 13.333L0.500458 13.5C0.434023 13.4971 0.367709 13.508 0.305731 13.5321C0.243752 13.5562 0.187464 13.5929 0.140442 13.64C0.0934206 13.687 0.0566934 13.7433 0.0325945 13.8052C0.00849557 13.8672 -0.00244829 13.9335 0.000458272 14V18C-0.00244829 18.0664 0.00849557 18.1327 0.0325945 18.1947C0.0566934 18.2567 0.0934206 18.313 0.140442 18.36C0.187464 18.407 0.243752 18.4437 0.305731 18.4678C0.367709 18.4919 0.434023 18.5029 0.500458 18.5L4.02796 18.6665C4.33628 20.0555 4.8854 21.3798 5.65046 22.5795L3.17846 25.05C3.07892 25.1502 3.02306 25.2857 3.02306 25.427C3.02306 25.5682 3.07892 25.7037 3.17846 25.804L6.19546 28.821C6.29568 28.9205 6.4312 28.9764 6.57246 28.9764C6.71371 28.9764 6.84923 28.9205 6.94946 28.821L9.42096 26.35C10.6205 27.1147 11.9447 27.6637 13.3335 27.972L13.5005 31.5C13.4976 31.5664 13.5085 31.6327 13.5326 31.6947C13.5567 31.7567 13.5934 31.813 13.6404 31.86C13.6875 31.907 13.7438 31.9437 13.8057 31.9678C13.8677 31.9919 13.934 32.0029 14.0005 32H18.0005C18.0669 32.0029 18.1332 31.9919 18.1952 31.9678C18.2572 31.9437 18.3135 31.907 18.3605 31.86C18.4075 31.813 18.4442 31.7567 18.4683 31.6947C18.4924 31.6327 18.5034 31.5664 18.5005 31.5L18.667 27.9725C20.056 27.6641 21.3803 27.115 22.58 26.35L25.0505 28.822C25.1507 28.9215 25.2862 28.9774 25.4275 28.9774C25.5687 28.9774 25.7042 28.9215 25.8045 28.822L28.8215 25.805C28.921 25.7047 28.9769 25.5692 28.9769 25.428C28.9769 25.2867 28.921 25.1512 28.8215 25.051L26.3505 22.5795C27.1153 21.3799 27.6642 20.0558 27.9725 18.667L31.5005 18.5C31.5669 18.5029 31.6332 18.4919 31.6952 18.4678C31.7572 18.4437 31.8135 18.407 31.8605 18.36C31.9075 18.313 31.9442 18.2567 31.9683 18.1947C31.9924 18.1327 32.0034 18.0664 32.0005 18V14C32.0034 13.9335 31.9924 13.8672 31.9683 13.8052C31.9442 13.7433 31.9075 13.687 31.8605 13.64C31.8135 13.5929 31.7572 13.5562 31.6952 13.5321C31.6332 13.508 31.5669 13.4971 31.5005 13.5ZM16.0005 22C14.8138 22 13.6537 21.6481 12.667 20.9888C11.6803 20.3295 10.9113 19.3924 10.4572 18.2961C10.0031 17.1997 9.88424 15.9933 10.1157 14.8294C10.3473 13.6655 10.9187 12.5964 11.7578 11.7573C12.5969 10.9182 13.666 10.3468 14.8299 10.1153C15.9938 9.88375 17.2002 10.0026 18.2966 10.4567C19.3929 10.9108 20.33 11.6799 20.9893 12.6665C21.6486 13.6532 22.0005 14.8133 22.0005 16C22.0005 17.5913 21.3683 19.1174 20.2431 20.2426C19.1179 21.3678 17.5918 22 16.0005 22Z" fill="#F5F5FA"/>
</g>
<defs>
<clipPath id="clip0_230_1378">
<rect width="32" height="32" fill="white"/>
</clipPath>
</defs>
</svg>
