<svg width="52" height="52" viewBox="0 0 52 52" fill="none" xmlns="http://www.w3.org/2000/svg">
<path d="M26 0L44.3848 7.61522L52 26L44.3848 44.3848L26 52L7.61522 44.3848L0 26L7.61522 7.61522L26 0Z" fill="#6B49D4"/>
<path d="M33.555 25.2678C33.2951 25.1176 33.2066 24.7841 33.3568 24.5242C33.5071 24.2642 33.8405 24.1758 34.1005 24.326L35.0273 24.8608C35.2872 25.011 35.3757 25.3445 35.2255 25.6044C35.0752 25.8644 34.7418 25.9528 34.4818 25.8026L33.555 25.2678ZM24.9087 37.5416H27.0937C27.3196 37.5416 27.5263 37.4479 27.6765 37.2987C27.8267 37.1485 27.9183 36.9429 27.9183 36.716V35.9916H24.084V36.716C24.084 36.9418 24.1778 37.1485 24.3259 37.2987C24.4761 37.4489 24.6818 37.5416 24.9087 37.5416ZM27.0937 38.6325H24.9087C24.3814 38.6325 23.902 38.4163 23.5558 38.07C23.2085 37.7227 22.9933 37.2433 22.9933 36.717V35.5494C22.9538 35.5164 22.9155 35.4802 22.8782 35.444C22.5394 35.1073 22.3296 34.6407 22.3296 34.1272C22.3296 33.6169 22.5394 33.1503 22.8771 32.8115L22.8803 32.8083C22.9847 32.7039 23.1019 32.6123 23.2287 32.5345C22.6715 28.6313 21.538 27.2644 20.5504 26.0753C19.4659 24.7713 18.5412 23.6569 18.5412 20.2798C18.5412 18.2226 19.3753 16.3583 20.7262 15.0075L20.7294 15.0043C22.0802 13.6555 23.9446 12.8203 26.0007 12.8203C28.0589 12.8203 29.9233 13.6555 31.2741 15.0064C32.625 16.3551 33.4602 18.2205 33.4602 20.2798C33.4602 23.657 32.5344 24.7714 31.452 26.0753L31.4222 26.1083C30.4421 27.2898 29.3235 28.6662 28.7716 32.5324C28.9005 32.6112 29.0188 32.7039 29.1242 32.8094L29.1573 32.8467C29.4747 33.1812 29.6708 33.634 29.6708 34.1272C29.6708 34.6407 29.4609 35.1073 29.1232 35.445C29.0859 35.4823 29.0475 35.5175 29.0081 35.5516V36.717C29.0081 37.2444 28.7929 37.7238 28.4456 38.07C28.0983 38.4173 27.6189 38.6325 27.0926 38.6325L27.0937 38.6325ZM27.8075 33.3517H24.1865C23.9766 33.3538 23.7859 33.4412 23.6496 33.5776C23.5079 33.7182 23.4216 33.9131 23.4216 34.1262C23.4216 34.3392 23.5089 34.5332 23.6496 34.6738C23.7859 34.8133 23.9766 34.8996 24.1865 34.9018H27.8171C28.0259 34.8986 28.2155 34.8123 28.354 34.6738C28.4946 34.5332 28.582 34.3392 28.582 34.1262C28.582 33.9238 28.5042 33.7384 28.3774 33.602L28.354 33.5797C28.2134 33.439 28.0195 33.3517 27.8064 33.3517L27.8075 33.3517ZM22.2902 21.7853C22.401 22.0644 22.2668 22.3809 21.9877 22.4927C21.7086 22.6035 21.3922 22.4693 21.2803 22.1902C21.2014 21.9931 21.1343 21.7939 21.0811 21.5946C21.0278 21.3954 20.9862 21.1887 20.9564 20.9768C20.9159 20.6795 21.1258 20.4057 21.423 20.3652C21.7202 20.3248 21.9941 20.5346 22.0345 20.8319C22.0558 20.9895 22.0889 21.1515 22.1325 21.3134C22.1762 21.4764 22.2295 21.6341 22.2902 21.7853ZM22.2902 18.7725C22.1773 19.0516 21.8599 19.1859 21.5807 19.073C21.3016 18.96 21.1674 18.6426 21.2803 18.3634C21.6116 17.5474 22.1496 16.8325 22.8335 16.2881C23.4994 15.7576 24.3069 15.39 25.1986 15.2473C25.4948 15.2004 25.7739 15.4028 25.8208 15.699C25.8676 15.9951 25.6652 16.2743 25.3691 16.3211C24.6702 16.4319 24.0353 16.7228 23.5111 17.1404C22.9731 17.5686 22.5502 18.1311 22.2892 18.7714L22.2902 18.7725ZM30.5062 15.7736C29.3556 14.622 27.7628 13.9093 26.0029 13.9093C24.2429 13.9093 22.6502 14.6209 21.4996 15.7725C20.3469 16.9253 19.6342 18.5178 19.6342 20.278C19.6342 23.263 20.4439 24.238 21.3899 25.3788C22.4574 26.6679 23.6825 28.1456 24.2898 32.2608H27.7158C28.3166 28.1816 29.5269 26.6934 30.589 25.414L30.6156 25.3799C31.5627 24.2389 32.3724 23.2631 32.3724 20.278C32.3724 18.5202 31.6586 16.9265 30.507 15.7725L30.5062 15.7736ZM15.8951 20.8234C15.5936 20.8234 15.3496 20.5795 15.3496 20.278C15.3496 19.9765 15.5936 19.7325 15.8951 19.7325H16.9657C17.2672 19.7325 17.5112 19.9765 17.5112 20.278C17.5112 20.5795 17.2672 20.8234 16.9657 20.8234H15.8951ZM35.0402 20.8234C34.7387 20.8234 34.4948 20.5795 34.4948 20.278C34.4948 19.9765 34.7388 19.7325 35.0402 19.7325H36.1109C36.4124 19.7325 36.6564 19.9765 36.6564 20.278C36.6564 20.5795 36.4124 20.8234 36.1109 20.8234H35.0402ZM17.5219 25.8029C17.2619 25.9531 16.9285 25.8647 16.7783 25.6047C16.6281 25.3448 16.7165 25.0113 16.9764 24.8611L17.9033 24.3263C18.1632 24.1761 18.4967 24.2645 18.6469 24.5245C18.7971 24.7844 18.7087 25.1179 18.4487 25.2681L17.5219 25.8029ZM34.1029 16.2296C33.8429 16.3798 33.5095 16.2914 33.3593 16.0315C33.209 15.7715 33.2975 15.4381 33.5574 15.2878L34.4843 14.753C34.7442 14.6028 35.0777 14.6913 35.2279 14.9512C35.3781 15.2111 35.2897 15.5446 35.0297 15.6948L34.1029 16.2296ZM16.9786 15.6948C16.7187 15.5457 16.6292 15.2133 16.7783 14.9533C16.9275 14.6934 17.2599 14.6039 17.5198 14.753L18.4467 15.2878C18.7066 15.437 18.7961 15.7694 18.6469 16.0293C18.4978 16.2893 18.1654 16.3787 17.9054 16.2296L16.9786 15.6948Z" fill="white"/>
</svg>
