<svg width="52" height="53" viewBox="0 0 52 53" fill="none" xmlns="http://www.w3.org/2000/svg">
<path d="M26 0.5L44.3848 8.11522L52 26.5L44.3848 44.8848L26 52.5L7.61522 44.8848L0 26.5L7.61522 8.11522L26 0.5Z" fill="#6B49D4"/>
<path fill-rule="evenodd" clip-rule="evenodd" d="M19.7204 29.3869C20.5018 28.6055 21.5616 28.1665 22.6667 28.1665H29.3333C30.4384 28.1665 31.4982 28.6055 32.2796 29.3869C33.061 30.1683 33.5 31.2281 33.5 32.3332V33.9998C33.5 34.4601 33.1269 34.8332 32.6667 34.8332C32.2064 34.8332 31.8333 34.4601 31.8333 33.9998V32.3332C31.8333 31.6701 31.5699 31.0342 31.1011 30.5654C30.6323 30.0966 29.9964 29.8332 29.3333 29.8332H22.6667C22.0036 29.8332 21.3677 30.0966 20.8989 30.5654C20.4301 31.0342 20.1667 31.6701 20.1667 32.3332V33.9998C20.1667 34.4601 19.7936 34.8332 19.3333 34.8332C18.8731 34.8332 18.5 34.4601 18.5 33.9998V32.3332C18.5 31.2281 18.939 30.1683 19.7204 29.3869Z" fill="white"/>
<path fill-rule="evenodd" clip-rule="evenodd" d="M26.0007 19.8332C24.6199 19.8332 23.5007 20.9525 23.5007 22.3332C23.5007 23.7139 24.6199 24.8332 26.0007 24.8332C27.3814 24.8332 28.5007 23.7139 28.5007 22.3332C28.5007 20.9525 27.3814 19.8332 26.0007 19.8332ZM21.834 22.3332C21.834 20.032 23.6995 18.1665 26.0007 18.1665C28.3018 18.1665 30.1673 20.032 30.1673 22.3332C30.1673 24.6344 28.3018 26.4998 26.0007 26.4998C23.6995 26.4998 21.834 24.6344 21.834 22.3332Z" fill="white"/>
</svg>
