<svg width="48" height="48" viewBox="0 0 48 48" fill="none" xmlns="http://www.w3.org/2000/svg">
<path d="M24 1.5C19.5499 1.5 15.1998 2.8196 11.4997 5.29193C7.79957 7.76427 4.91569 11.2783 3.21271 15.3896C1.50974 19.501 1.06417 24.025 1.93233 28.3895C2.8005 32.7541 4.94342 36.7632 8.0901 39.9099C11.2368 43.0566 15.2459 45.1995 19.6105 46.0677C23.975 46.9358 28.499 46.4903 32.6104 44.7873C36.7217 43.0843 40.2357 40.2004 42.7081 36.5003C45.1804 32.8002 46.5 28.4501 46.5 24C46.5 18.0326 44.1295 12.3097 39.9099 8.0901C35.6903 3.87053 29.9674 1.5 24 1.5ZM31.5 16.5C32.0933 16.5 32.6734 16.6759 33.1667 17.0056C33.6601 17.3352 34.0446 17.8038 34.2716 18.3519C34.4987 18.9001 34.5581 19.5033 34.4424 20.0853C34.3266 20.6672 34.0409 21.2018 33.6213 21.6213C33.2018 22.0409 32.6672 22.3266 32.0853 22.4424C31.5033 22.5581 30.9001 22.4987 30.352 22.2716C29.8038 22.0446 29.3352 21.6601 29.0056 21.1667C28.676 20.6734 28.5 20.0933 28.5 19.5C28.5 18.7044 28.8161 17.9413 29.3787 17.3787C29.9413 16.8161 30.7044 16.5 31.5 16.5ZM16.5 16.5C17.0933 16.5 17.6734 16.6759 18.1667 17.0056C18.6601 17.3352 19.0446 17.8038 19.2716 18.3519C19.4987 18.9001 19.5581 19.5033 19.4424 20.0853C19.3266 20.6672 19.0409 21.2018 18.6213 21.6213C18.2018 22.0409 17.6672 22.3266 17.0853 22.4424C16.5033 22.5581 15.9001 22.4987 15.352 22.2716C14.8038 22.0446 14.3352 21.6601 14.0056 21.1667C13.676 20.6734 13.5 20.0933 13.5 19.5C13.5 18.7044 13.8161 17.9413 14.3787 17.3787C14.9413 16.8161 15.7044 16.5 16.5 16.5ZM24 40.5C17.55 40.5 12.15 35.925 10.5 30H37.5C35.85 35.925 30.45 40.5 24 40.5Z" fill="#6B49D4"/>
</svg>
