<svg width="82" height="82" viewBox="0 0 82 82" fill="none" xmlns="http://www.w3.org/2000/svg">
<path d="M69.9919 12.0092C64.258 6.27507 56.9525 2.37005 48.9993 0.787932C41.046 -0.794184 32.8022 0.0176643 25.3103 3.12081C17.8185 6.22396 11.4151 11.479 6.90985 18.2215C2.40465 24.9639 0 32.8909 0 41C0 49.1091 2.40465 57.0361 6.90985 63.7785C11.4151 70.521 17.8185 75.776 25.3103 78.8792C32.8022 81.9823 41.046 82.7942 48.9993 81.2121C56.9525 79.63 64.258 75.7249 69.9919 69.9908C77.6806 62.3019 82 51.8736 82 41C82 30.1264 77.6806 19.6981 69.9919 12.0092ZM60.6952 33.898L38.427 56.1661L25.0931 42.8322C24.8483 42.5958 24.6531 42.313 24.5188 42.0004C24.3845 41.6878 24.3138 41.3515 24.3109 41.0113C24.3079 40.671 24.3727 40.3336 24.5016 40.0187C24.6304 39.7038 24.8207 39.4177 25.0613 39.1771C25.3019 38.9365 25.588 38.7462 25.9029 38.6173C26.2179 38.4885 26.5553 38.4237 26.8955 38.4266C27.2358 38.4296 27.572 38.5003 27.8847 38.6346C28.1973 38.7689 28.4801 38.9641 28.7164 39.2088L38.4258 48.9181L57.0718 30.2759C57.5562 29.8156 58.2012 29.5627 58.8694 29.5711C59.5376 29.5795 60.1761 29.8487 60.6487 30.3211C61.1213 30.7936 61.3907 31.4319 61.3994 32.1001C61.4081 32.7683 61.1554 33.4135 60.6952 33.898Z" fill="#178760"/>
</svg>
