<svg width="16" height="16" viewBox="0 0 16 16" fill="none" xmlns="http://www.w3.org/2000/svg">
<path d="M9.35 10.975C7.475 10.725 7.5 10.05 7.5 9.7V9.21481C7.5 9.15769 7.52476 9.10362 7.56595 9.06404C8.19618 8.45859 8.5 7.48772 8.5 6.4V4.65C8.5 2.75 7.225 2 6 2C4.775 2 3.5 2.75 3.5 4.65V6.4C3.5 7.48772 3.82719 8.43522 4.45897 9.03913C4.50027 9.0786 4.525 9.13269 4.525 9.18981V9.7C4.525 10.075 4.525 10.7 2.675 10.975C0.93397 11.2338 0.543578 12.799 0.503628 12.9824C0.501022 12.9944 0.5 13.0062 0.5 13.0184V13.8C0.5 13.9105 0.589543 14 0.7 14H11.3C11.4105 14 11.5 13.9105 11.5 13.8V13C11.5 13 11.5 11.3 9.35 10.975Z" fill="#E6E6F5"/>
<path d="M13.725 9.34995C12.2 9.04995 12.2 8.59995 12.2 8.29995V7.91125C12.2 7.85617 12.223 7.80377 12.2619 7.76483C12.5348 7.49198 12.7517 7.16804 12.9 6.8112C13.0594 6.42778 13.1361 6.01503 13.125 5.59995V4.14995C13.125 2.59995 12 1.99995 11 1.99995C10.4774 1.98959 9.96802 2.16353 9.56103 2.49102C9.55367 2.49694 9.54678 2.50342 9.54041 2.51039C9.42549 2.63607 9.32125 2.77104 9.22874 2.91389C9.19407 2.96742 9.18988 3.03459 9.21312 3.09398C9.40693 3.58932 9.50442 4.11744 9.5 4.64995V6.39995C9.5 6.53048 9.5 6.661 9.48353 6.77505C9.47878 6.80794 9.48012 6.84158 9.48989 6.87334L9.76616 7.77121C9.77202 7.79026 9.775 7.81009 9.775 7.83002V8.27495C9.775 8.52495 9.775 8.84995 9 9.12495L8.79532 9.18077C8.7499 9.19316 8.71031 9.22117 8.68351 9.25988L8.53262 9.47783C8.51138 9.50851 8.5 9.54494 8.5 9.58226C8.5 9.65398 8.54159 9.71962 8.60796 9.74678C8.88419 9.85982 9.17682 9.92847 9.475 9.94995C11.043 10.1638 11.866 11.0097 12.2228 11.8228C12.2561 11.8987 12.3298 11.9499 12.4126 11.9499H15.3C15.4105 11.9499 15.5 11.8604 15.5 11.7499V10.9999C15.5 10.9999 15.5 9.67495 13.725 9.34995Z" fill="#E6E6F5"/>
</svg>
