<svg width="21" height="20" viewBox="0 0 21 20" fill="none" xmlns="http://www.w3.org/2000/svg">
<path d="M13.1668 15.94C13.8777 16.1464 14.6142 16.2508 15.3543 16.25C16.5447 16.2517 17.7195 15.9803 18.7885 15.4567C18.8201 14.7098 18.6074 13.9729 18.1825 13.3578C17.7576 12.7427 17.1438 12.2828 16.4341 12.0479C15.7244 11.813 14.9574 11.8159 14.2495 12.0562C13.5416 12.2964 12.9312 12.7609 12.511 13.3792M13.1668 15.94V15.9375C13.1668 15.01 12.9285 14.1375 12.511 13.3792M13.1668 15.94V16.0283C11.5631 16.9942 9.72569 17.5032 7.85352 17.5C5.91102 17.5 4.09352 16.9625 2.54185 16.0283L2.54102 15.9375C2.54038 14.7579 2.93236 13.6116 3.65517 12.6794C4.37798 11.7472 5.39049 11.082 6.53309 10.7888C7.67569 10.4956 8.88337 10.5911 9.96574 11.0601C11.0481 11.5291 11.9436 12.345 12.511 13.3792M10.6668 5.3125C10.6668 6.05842 10.3705 6.77379 9.84309 7.30124C9.31564 7.82868 8.60027 8.125 7.85435 8.125C7.10843 8.125 6.39306 7.82868 5.86561 7.30124C5.33817 6.77379 5.04185 6.05842 5.04185 5.3125C5.04185 4.56658 5.33817 3.85121 5.86561 3.32376C6.39306 2.79632 7.10843 2.5 7.85435 2.5C8.60027 2.5 9.31564 2.79632 9.84309 3.32376C10.3705 3.85121 10.6668 4.56658 10.6668 5.3125ZM17.5419 7.1875C17.5419 7.76766 17.3114 8.32406 16.9011 8.7343C16.4909 9.14453 15.9345 9.375 15.3543 9.375C14.7742 9.375 14.2178 9.14453 13.8076 8.7343C13.3973 8.32406 13.1668 7.76766 13.1668 7.1875C13.1668 6.60734 13.3973 6.05094 13.8076 5.6407C14.2178 5.23047 14.7742 5 15.3543 5C15.9345 5 16.4909 5.23047 16.9011 5.6407C17.3114 6.05094 17.5419 6.60734 17.5419 7.1875Z" stroke="#5F40CE" stroke-width="1.5" stroke-linecap="round" stroke-linejoin="round"/>
</svg>
