<svg width="32" height="32" viewBox="0 0 32 32" fill="none" xmlns="http://www.w3.org/2000/svg">
<path d="M10 21C10 21.663 9.73661 22.2989 9.26777 22.7678C8.79893 23.2366 8.16304 23.5 7.5 23.5C7.23478 23.5 6.98043 23.6054 6.79289 23.7929C6.60536 23.9804 6.5 24.2348 6.5 24.5C6.5 24.7652 6.60536 25.0196 6.79289 25.2071C6.98043 25.3946 7.23478 25.5 7.5 25.5C8.69347 25.5 9.83807 25.0259 10.682 24.182C11.5259 23.3381 12 22.1935 12 21C12 20.7348 11.8946 20.4804 11.7071 20.2929C11.5196 20.1054 11.2652 20 11 20C10.7348 20 10.4804 20.1054 10.2929 20.2929C10.1054 20.4804 10 20.7348 10 21ZM27 21C27 21.663 26.7366 22.2989 26.2678 22.7678C25.7989 23.2366 25.163 23.5 24.5 23.5C24.2348 23.5 23.9804 23.6054 23.7929 23.7929C23.6054 23.9804 23.5 24.2348 23.5 24.5C23.5 24.7652 23.6054 25.0196 23.7929 25.2071C23.9804 25.3946 24.2348 25.5 24.5 25.5C25.6935 25.5 26.8381 25.0259 27.682 24.182C28.5259 23.3381 29 22.1935 29 21C29 20.7348 28.8946 20.4804 28.7071 20.2929C28.5196 20.1054 28.2652 20 28 20C27.7348 20 27.4804 20.1054 27.2929 20.2929C27.1054 20.4804 27 20.7348 27 21Z" fill="#F5F5FA"/>
<path d="M31.3999 18.1L26.1499 6.45L25.9999 6.15H25.9499C25.5536 5.37077 24.9541 4.71314 24.2148 4.24666C23.4755 3.78017 22.6238 3.52219 21.7499 3.5C20.6036 3.50128 19.4965 3.91703 18.6327 4.67054C17.7689 5.42406 17.2068 6.46452 17.0499 7.6C16.3552 7.4786 15.6446 7.4786 14.9499 7.6C14.793 6.46452 14.2309 5.42406 13.3671 4.67054C12.5033 3.91703 11.3962 3.50128 10.2499 3.5C9.37257 3.50844 8.51395 3.7547 7.76552 4.21256C7.0171 4.67042 6.40689 5.32273 5.9999 6.1L5.8499 6.4L0.599898 18.1C0.16342 19.1247 -0.0393537 20.2338 0.00630511 21.3466C0.0519639 22.4595 0.344909 23.5482 0.863863 24.5337C1.38282 25.5192 2.11475 26.3767 3.00651 27.044C3.89826 27.7113 4.92745 28.1716 6.01931 28.3915C7.11118 28.6114 8.23831 28.5854 9.31885 28.3153C10.3994 28.0451 11.4062 27.5378 12.2662 26.83C13.1261 26.1222 13.8177 25.2317 14.2905 24.2233C14.7634 23.2149 15.0057 22.1138 14.9999 21V15.65C15.6561 15.4828 16.3437 15.4828 16.9999 15.65V21C16.9941 22.1138 17.2364 23.2149 17.7093 24.2233C18.1821 25.2317 18.8737 26.1222 19.7336 26.83C20.5936 27.5378 21.6004 28.0451 22.6809 28.3153C23.7615 28.5854 24.8886 28.6114 25.9805 28.3915C27.0724 28.1716 28.1015 27.7113 28.9933 27.044C29.885 26.3767 30.617 25.5192 31.1359 24.5337C31.6549 23.5482 31.9478 22.4595 31.9935 21.3466C32.0392 20.2338 31.8364 19.1247 31.3999 18.1ZM7.4999 26.5C6.4121 26.5 5.34873 26.1774 4.44426 25.5731C3.53979 24.9687 2.83484 24.1098 2.41856 23.1048C2.00228 22.0998 1.89336 20.9939 2.10558 19.927C2.3178 18.8601 2.84162 17.8801 3.61081 17.1109C4.38 16.3417 5.36001 15.8179 6.4269 15.6057C7.4938 15.3935 8.59966 15.5024 9.60466 15.9187C10.6097 16.3349 11.4686 17.0399 12.073 17.9444C12.6773 18.8488 12.9999 19.9122 12.9999 21C12.9999 22.4587 12.4204 23.8576 11.389 24.8891C10.3575 25.9205 8.95859 26.5 7.4999 26.5ZM24.4999 26.5C23.4121 26.5 22.3487 26.1774 21.4443 25.5731C20.5398 24.9687 19.8348 24.1098 19.4186 23.1048C19.0023 22.0998 18.8934 20.9939 19.1056 19.927C19.3178 18.8601 19.8416 17.8801 20.6108 17.1109C21.38 16.3417 22.36 15.8179 23.4269 15.6057C24.4938 15.3935 25.5997 15.5024 26.6047 15.9187C27.6097 16.3349 28.4686 17.0399 29.073 17.9444C29.6773 18.8488 29.9999 19.9122 29.9999 21C29.9999 22.4587 29.4204 23.8576 28.389 24.8891C27.3575 25.9205 25.9586 26.5 24.4999 26.5Z" fill="#F5F5FA"/>
</svg>
