<svg width="64" height="64" viewBox="0 0 64 64" fill="none" xmlns="http://www.w3.org/2000/svg">
<path d="M48 60V55C44 55 38.057 49.354 35.008 46.984C34.1315 46.3487 33.0759 46.008 31.9934 46.0109C30.9109 46.0138 29.8572 46.3601 28.984 47C25.959 49.392 20 55 16 55V60H48ZM32 37C32.422 37 34.083 33.146 36.52 31.538L42.046 27.657C42.8128 27.111 43.5224 26.4889 44.164 25.8C34.664 29.63 28.073 22.8 20.083 26L20.042 26.009C20.6278 26.616 21.2674 27.1686 21.953 27.66C21.953 27.66 26.095 30.575 27.479 31.541C30.021 33.313 31.234 37 32 37Z" fill="#6B49D4"/>
<path d="M24.776 23.114C27.0371 23.1898 29.2834 23.5093 31.476 24.067C33.6032 24.6087 35.7823 24.9209 37.976 24.998C39.8413 25.0043 41.6898 24.6452 43.417 23.941L46.367 22.751C47.4381 20.7334 47.9988 18.4843 48 16.2V4H16V16.2C16.0037 19.0987 16.9081 21.9247 18.588 24.287L19.488 24.08C21.1742 23.428 22.9682 23.1003 24.776 23.114ZM42.047 37.056L36.747 33.39C36.747 33.39 36.118 33.928 35.997 34.078C35.2067 35.1193 34.5359 36.246 33.997 37.437C33.8787 37.8789 33.6199 38.2702 33.2597 38.5522C32.8995 38.8341 32.4573 38.9913 32 39C31.5561 38.9802 31.128 38.8294 30.7697 38.5665C30.4115 38.3036 30.1391 37.9405 29.987 37.523C29.3934 36.3382 28.6255 35.2491 27.709 34.292C27.48 34.073 26.98 33.521 26.98 33.521L21.954 37.056C20.1149 38.3476 18.6137 40.063 17.5774 42.0571C16.541 44.0513 16 46.2656 16 48.513V53C18.625 53 23.252 49.149 26.016 46.848C26.5862 46.3686 27.1622 45.8962 27.744 45.431C28.9682 44.5135 30.4558 44.0154 31.9857 44.0107C33.5156 44.006 35.0062 44.495 36.236 45.405C36.805 45.847 37.466 46.395 38.166 46.975C40.884 49.229 45.435 53 48 53V48.513C48.0001 46.2657 47.4592 44.0514 46.4231 42.0573C45.3869 40.0631 43.886 38.3477 42.047 37.056Z" fill="#6B49D4"/>
<path d="M51 64H13C12.7348 64 12.4804 63.8946 12.2929 63.7071C12.1054 63.5196 12 63.2652 12 63C12 62.7348 12.1054 62.4804 12.2929 62.2929C12.4804 62.1054 12.7348 62 13 62H51C51.2652 62 51.5196 62.1054 51.7071 62.2929C51.8946 62.4804 52 62.7348 52 63C52 63.2652 51.8946 63.5196 51.7071 63.7071C51.5196 63.8946 51.2652 64 51 64ZM51 2H13C12.7348 2 12.4804 1.89464 12.2929 1.70711C12.1054 1.51957 12 1.26522 12 1C12 0.734784 12.1054 0.48043 12.2929 0.292893C12.4804 0.105357 12.7348 0 13 0L51 0C51.2652 0 51.5196 0.105357 51.7071 0.292893C51.8946 0.48043 52 0.734784 52 1C52 1.26522 51.8946 1.51957 51.7071 1.70711C51.5196 1.89464 51.2652 2 51 2Z" fill="#6B49D4"/>
</svg>
