<svg width="17" height="16" viewBox="0 0 17 16" fill="none" xmlns="http://www.w3.org/2000/svg">
<g clip-path="url(#clip0_621_2563)">
<path d="M8.00391 16.3379V14.3262C7.19661 14.3132 6.45117 14.2415 5.76758 14.1113C5.09049 13.9746 4.50456 13.7988 4.00977 13.584V11.5039C4.51107 11.7383 5.12956 11.9499 5.86523 12.1387C6.60091 12.3275 7.3138 12.4349 8.00391 12.4609V8.79883C7.0599 8.47982 6.29167 8.14779 5.69922 7.80273C5.11328 7.45768 4.68359 7.05729 4.41016 6.60156C4.13672 6.13932 4 5.58594 4 4.94141C4 4.27734 4.16602 3.70768 4.49805 3.23242C4.83659 2.75065 5.30534 2.36979 5.9043 2.08984C6.50977 1.8099 7.20964 1.64388 8.00391 1.5918V0H9.27344V1.5625C9.99609 1.58203 10.6634 1.66341 11.2754 1.80664C11.8939 1.94336 12.4831 2.13542 13.043 2.38281L12.3301 4.19922C11.8418 4.00391 11.334 3.8444 10.8066 3.7207C10.2793 3.59701 9.76823 3.51237 9.27344 3.4668V7.04102C10.0677 7.30143 10.7741 7.58138 11.3926 7.88086C12.0176 8.18034 12.5059 8.55794 12.8574 9.01367C13.2155 9.46289 13.3945 10.0521 13.3945 10.7812C13.3945 11.7383 13.043 12.5293 12.3398 13.1543C11.6367 13.7728 10.6146 14.1439 9.27344 14.2676V16.3379H8.00391ZM9.27344 12.3828C9.89844 12.3047 10.3639 12.1419 10.6699 11.8945C10.9759 11.6406 11.1289 11.3118 11.1289 10.9082C11.1289 10.6348 11.0638 10.4036 10.9336 10.2148C10.8099 10.026 10.6113 9.85677 10.3379 9.70703C10.071 9.55729 9.71615 9.41081 9.27344 9.26758V12.3828ZM8.00391 6.5625V3.50586C7.6263 3.54492 7.30729 3.62305 7.04688 3.74023C6.78646 3.85742 6.59115 4.01042 6.46094 4.19922C6.33073 4.38802 6.26562 4.61263 6.26562 4.87305C6.26562 5.15951 6.32422 5.40365 6.44141 5.60547C6.55859 5.80729 6.74414 5.98307 6.99805 6.13281C7.25846 6.28255 7.59375 6.42578 8.00391 6.5625Z" fill="#0D0D38"/>
</g>
<defs>
<clipPath id="clip0_621_2563">
<rect width="16" height="16" fill="white" transform="translate(0.5)"/>
</clipPath>
</defs>
</svg>
