<svg width="24" height="24" viewBox="0 0 24 24" fill="none" xmlns="http://www.w3.org/2000/svg">
<g clip-path="url(#clip0_3014_1198)">
<path d="M18.7484 19.125C14.9984 18.4125 14.9984 17.25 14.9984 16.5V15.3C16.3484 14.0625 17.2484 12.0375 17.2484 9.75V6.15C17.2484 2.25 14.4734 0.75 11.9984 0.75C9.52344 0.75 6.74844 2.25 6.74844 6.15V9.75C6.74844 12.0375 7.64844 14.0625 8.99844 15.3V16.5C8.99844 17.25 8.99844 18.45 5.24844 19.125C4.19889 19.3106 3.22701 19.8005 2.45362 20.5339C1.68023 21.2673 1.13943 22.2118 0.898438 23.25H23.0984C22.8486 22.216 22.305 21.2764 21.5332 20.5445C20.7613 19.8126 19.7942 19.3196 18.7484 19.125Z" fill="#F5F5FA"/>
</g>
<defs>
<clipPath id="clip0_3014_1198">
<rect width="24" height="24" fill="white"/>
</clipPath>
</defs>
</svg>
